<svg width="30" height="25" viewBox="0 0 30 25" fill="none" xmlns="http://www.w3.org/2000/svg">
<path d="M29.9389 18.0824C29.2606 17.1665 24.8801 11.5815 18.739 11.5815C13.406 11.5815 7.70108 16.4186 7.70108 16.4186C7.70108 16.4186 5.55806 12.032 1.17426 11.6108C1.14821 11.6108 1.12117 11.6053 1.09183 11.6053H1.06479C0.973048 11.6103 0.88734 11.6993 0.897271 11.7783C0.910028 11.8551 0.965868 11.9391 0.965868 11.9391C1.5313 12.8772 2.97291 15.5458 2.97291 18.2123C2.97291 20.8871 1.52244 23.5635 0.962507 24.4971L0.924923 24.5562C0.908347 24.5845 0.897271 24.6126 0.897271 24.6491C0.897271 24.7414 0.969153 24.8132 1.05922 24.8216L1.10681 24.8177C1.12117 24.8177 1.13721 24.8177 1.15264 24.8132C5.55035 24.4036 7.70108 20.0038 7.70108 20.0038C7.70108 20.0038 13.406 24.8414 18.739 24.8414C24.8801 24.8414 29.2606 19.2565 29.9389 18.3422C29.9577 18.3174 29.9726 18.2957 29.9859 18.2798C29.9936 18.2582 30.0002 18.2378 30.0002 18.2123C30.0002 18.1886 29.9936 18.1642 29.9859 18.1454C29.9726 18.1266 29.9577 18.1051 29.9389 18.0824ZM22.1539 18.9182C21.1639 18.9182 20.3613 18.1145 20.3613 17.1245C20.3613 16.1351 21.1639 15.3336 22.1539 15.3336C23.1461 15.3336 23.9482 16.1351 23.9482 17.1245C23.9482 18.1145 23.1461 18.9182 22.1539 18.9182Z" fill="white"/>
<path d="M7.29158 6.57898C7.30541 6.55911 7.3187 6.54414 7.33856 6.53031C7.36728 6.51267 7.39937 6.4977 7.43527 6.4977C7.48065 6.4977 7.52426 6.51595 7.55528 6.54636C7.55688 6.54972 7.56024 6.55193 7.56299 6.55415C10.911 9.74568 14.4232 7.15884 15.1539 6.55415L15.2253 6.48555C15.2463 6.4773 15.2683 6.47455 15.2916 6.47455C15.317 6.47455 15.3413 6.4773 15.3623 6.48555L15.4342 6.55415C16.1644 7.15884 19.6749 9.74568 23.024 6.55415C23.0246 6.55193 23.0278 6.54972 23.0306 6.54636C23.0616 6.51595 23.1025 6.4977 23.1489 6.4977C23.186 6.4977 23.2191 6.51267 23.2462 6.53031C23.2672 6.54414 23.281 6.55911 23.296 6.57898C23.9449 7.21743 26.7484 9.63186 29.7162 7.05381C29.7471 7.02172 29.7681 6.98025 29.7681 6.92998V5.70402C29.7681 5.6067 29.6896 5.52878 29.5929 5.52878C29.5802 5.52878 29.5686 5.53374 29.5553 5.53596C29.5277 5.54917 29.4989 5.56468 29.4663 5.58072C28.5553 6.03784 25.7258 7.12126 23.16 4.69629C23.1362 4.67307 23.1108 4.65046 23.0854 4.62556C23.0616 4.61227 23.0395 4.60791 23.0102 4.60791C22.9925 4.60791 22.9737 4.61227 22.9576 4.62113C22.919 4.63106 22.8886 4.65542 22.8681 4.6869C22.1037 5.26952 18.592 7.64742 15.4646 4.73006L15.4187 4.68415C15.3861 4.65321 15.3413 4.63495 15.2916 4.63495C15.2463 4.63495 15.2004 4.65321 15.1694 4.68415L15.1213 4.73006C11.9955 7.64742 8.48058 5.26952 7.71669 4.6869C7.69675 4.65542 7.66688 4.63106 7.62991 4.62113C7.61219 4.61227 7.59286 4.60791 7.57407 4.60791C7.54863 4.60791 7.52426 4.61227 7.50112 4.62556C7.47675 4.65046 7.45078 4.67307 7.42481 4.69629C4.85783 7.12126 2.0316 6.03784 1.11898 5.58072C1.08751 5.56468 1.0571 5.54917 1.02945 5.53596C1.01563 5.53374 1.00684 5.52878 0.995764 5.52878C0.898445 5.52878 0.818848 5.6067 0.818848 5.70402V6.92998C0.818848 6.98025 0.83825 7.02172 0.870257 7.05381C3.83468 9.63186 6.64213 7.21743 7.29158 6.57898Z" fill="white"/>
<path d="M1.03331 1.08567C1.02002 1.08292 1.01062 1.07849 0.999548 1.07849C0.902305 1.07849 0.823242 1.15755 0.823242 1.25648V2.47862C0.823242 2.5295 0.842568 2.5748 0.874651 2.6052C3.83907 5.18103 6.64591 2.76714 7.29598 2.12983C7.30919 2.1105 7.32302 2.09171 7.34242 2.0801C7.37115 2.06131 7.40315 2.04802 7.43913 2.04802C7.48496 2.04802 7.52812 2.06574 7.55853 2.095C7.56128 2.09828 7.56456 2.10111 7.56739 2.10271C10.9159 5.29875 14.427 2.71023 15.1578 2.10271L15.2296 2.03694C15.25 2.02755 15.2721 2.02373 15.2965 2.02373C15.3213 2.02373 15.3462 2.02755 15.3662 2.03694L15.438 2.10271C16.1682 2.71023 19.6798 5.29875 23.0278 2.10271C23.0289 2.10111 23.0328 2.09828 23.0345 2.095C23.0659 2.06574 23.1074 2.04802 23.1539 2.04802C23.1898 2.04802 23.2235 2.06131 23.2506 2.0801C23.271 2.09171 23.2849 2.1105 23.3003 2.12983C23.9492 2.76714 26.7534 5.18103 29.7199 2.6052C29.7509 2.5748 29.7713 2.5295 29.7713 2.47862V1.25648C29.7713 1.15755 29.6946 1.07849 29.5973 1.07849C29.5846 1.07849 29.573 1.08292 29.5591 1.08567C29.532 1.10118 29.5033 1.11607 29.4701 1.13158C28.5587 1.58869 25.7308 2.67487 23.1638 0.246081C23.14 0.223928 23.1146 0.201241 23.0897 0.175269C23.0659 0.165339 23.0433 0.158691 23.0145 0.158691C22.9969 0.158691 22.9775 0.164268 22.9615 0.167018C22.9233 0.182449 22.8929 0.206817 22.8725 0.236685C22.1069 0.819838 18.5959 3.1966 15.4689 0.279768L15.4231 0.235005C15.3905 0.206283 15.3462 0.182449 15.2965 0.182449C15.25 0.182449 15.2041 0.206283 15.1737 0.235005L15.1252 0.279768C11.9999 3.1966 8.4849 0.819838 7.72101 0.236685C7.70115 0.206817 7.67128 0.182449 7.63369 0.167018C7.61597 0.164268 7.59779 0.158691 7.57785 0.158691C7.55295 0.158691 7.52812 0.165339 7.50437 0.175269C7.48168 0.201241 7.45456 0.223928 7.4292 0.246081C4.86276 2.67487 2.03599 1.58869 1.12337 1.13158C1.09129 1.11607 1.06089 1.10118 1.03331 1.08567Z" fill="white"/>
</svg>
