<svg width="41" height="21" viewBox="0 0 41 21" fill="none" xmlns="http://www.w3.org/2000/svg">
<path d="M40.844 10.3022C39.4074 8.28086 32.9063 0.210194 20.802 0.193384C8.69499 0.177194 2.17431 8.23036 0.729829 10.2472C0.668167 10.3335 0.615414 10.408 0.572266 10.4714C0.615414 10.537 0.668167 10.611 0.729209 10.699C2.16812 12.7191 8.66702 20.7903 20.7735 20.8066C32.8783 20.8234 39.4012 12.7696 40.8435 10.7534C40.9062 10.6659 40.9584 10.5919 40.9999 10.5269C40.9584 10.4636 40.9068 10.3884 40.844 10.3022ZM14.042 5.28251C14.1513 5.12224 14.5145 4.66535 14.5588 4.60818C14.6519 4.48826 14.8374 4.46355 14.9674 4.44116C15.0958 4.41591 15.2667 4.48881 15.2875 4.58525C15.3093 4.68216 15.237 5.05662 15.1737 5.12107C14.996 5.30498 14.533 5.56448 14.2785 5.52358C14.0817 5.49275 14.0044 5.34022 14.042 5.28251ZM13.6087 6.14183C13.6277 6.11882 13.6451 6.10038 13.6524 6.09086C13.8049 5.91764 14.1082 5.88062 14.3178 5.84808C14.5274 5.81276 14.8071 5.91873 14.8407 6.05832C14.8766 6.19729 14.3144 6.45068 14.2113 6.54596C13.9198 6.81391 13.4629 7.35989 13.1962 7.41814C13.1092 7.43781 13.0375 7.42433 12.9786 7.39521C13.1546 6.95854 13.3649 6.53814 13.6087 6.14183ZM18.126 15.4417C17.9618 16.0863 17.7701 16.3184 17.6065 16.5213C17.4433 16.727 16.839 16.9882 16.4562 16.9596C16.0728 16.9305 16.0207 15.907 16.0212 15.3806C16.0218 15.1984 15.7634 15.7376 15.6306 14.6418C15.5459 13.94 15.0947 14.7141 15.0638 14.246C15.0319 13.7792 14.8071 13.8722 14.5705 13.5802C14.3363 13.2881 14.042 13.6076 13.7129 13.7551C13.3856 13.8996 13.5201 13.9765 13.0554 13.8296C13.0431 13.8256 13.0375 13.8223 13.0257 13.8178C12.6003 12.8083 12.366 11.699 12.3677 10.5348C12.3682 10.25 12.3839 9.97029 12.4108 9.69336C12.4265 9.66539 12.4434 9.63789 12.463 9.61489C12.9097 9.08797 12.8996 8.9641 12.8996 8.9641L13.3935 8.7943C13.3935 8.7943 14.181 8.91646 14.7746 9.14072C15.2628 9.32509 16.0325 9.74046 16.4803 9.55888C16.8043 9.42548 17.0577 9.24886 17.0274 8.97928C16.9915 8.64123 16.7253 8.56051 16.403 8.7881C16.2836 8.87161 16.0308 8.278 15.8324 8.30774C15.6339 8.33687 16.0773 9.00562 15.9086 9.03367C15.7393 9.06225 15.4007 8.33687 15.343 8.2192C15.2864 8.10262 15.024 7.81111 14.7886 8.03305C14.2903 8.5045 13.4825 8.47476 13.3206 8.59645C12.8262 8.96472 12.6967 8.47367 12.7079 8.17489C12.7281 8.10649 12.7483 8.03755 12.7701 7.96976C12.9315 7.79206 13.51 7.73435 13.7091 7.86712C13.9265 8.01291 14.0834 7.83017 14.1687 7.74163C14.2556 7.65526 14.2253 7.51512 14.1709 7.39908C14.116 7.28141 14.2802 7.1962 14.3929 7.16591C14.5066 7.13624 14.8828 6.87387 15.033 6.78587C15.1844 6.69903 15.9646 6.60538 16.3138 6.78084C16.6625 6.95684 16.9831 6.81391 17.1552 6.61212C17.371 6.35648 17.6457 6.16197 17.7673 6.10317C17.8901 6.046 17.4674 5.65078 17.1187 6.08071C16.7695 6.50839 16.5918 6.54821 16.4281 6.54766C16.2645 6.54766 15.2914 6.30326 15.1714 5.9955C15.0532 5.68835 15.477 5.45851 15.8362 5.28476C16.1956 5.11379 17.1787 5.11774 17.4304 5.06112C17.9417 4.94957 18.5952 4.69393 18.9237 4.91819C19.251 5.13904 17.5487 5.52412 18.1076 5.82678C18.3065 5.9367 19.2073 5.31109 19.5156 5.15082C20.2415 4.77806 18.8133 4.65249 18.9994 3.8924C19.2101 3.03309 17.2483 3.3627 16.2701 3.43497C17.5829 2.59642 19.1407 2.10986 20.8133 2.11211C24.7914 2.11714 28.1204 4.87784 29.0039 8.58522C29.01 8.7685 28.9809 8.90081 28.9623 8.97533C28.8856 9.27915 28.3088 9.53982 27.9747 9.04986C27.8895 8.92661 27.5285 8.58468 27.5397 9.16869C27.5509 9.75339 28.107 9.81389 27.5672 10.1643C27.0285 10.514 26.9298 10.4293 26.6804 10.5173C26.4321 10.6048 26.1899 11.2069 26.2494 11.5286C26.3088 11.8509 27.0761 12.7309 26.5061 12.694C26.3727 12.6839 25.366 11.9944 25.2 11.5516C25.0251 11.0852 24.834 10.6289 24.6984 10.2774C24.5616 9.92714 24.2062 9.8369 23.9046 10.0426C23.6042 10.2478 23.9875 10.4534 23.7712 10.8924C23.556 11.3307 23.4007 11.722 23.0845 11.3593C22.2628 10.4148 21.066 10.8783 20.88 9.829C20.7797 9.25955 20.2891 9.31331 19.88 8.99044C19.4691 8.66981 19.2398 8.49498 19.1703 8.72698C19.1092 8.93048 20.4573 10.0022 20.5531 10.2769C20.6961 10.6844 20.1479 11.0432 19.7471 11.139C19.348 11.2343 19.172 10.9137 18.7802 10.5033C18.3879 10.0947 18.2163 9.80212 18.1883 10.1233C18.1485 10.5869 18.5599 11.2691 18.9602 11.5241C19.3009 11.7404 19.6832 11.8391 19.5722 12.1894C19.4607 12.5415 19.57 12.3425 19.1871 12.7197C18.8038 13.0998 18.7303 13.222 18.7577 13.7466C18.7847 14.2735 18.6474 14.3032 18.5644 14.741C18.482 15.1788 18.2925 14.7998 18.126 15.4417ZM27.177 12.0914C27.4607 12.069 27.8861 12.4624 27.7191 12.6127C27.5532 12.7624 27.1283 12.7068 26.9153 12.5398C26.7034 12.3744 27.0498 12.1014 27.177 12.0914ZM26.8189 11.8318C26.728 11.7976 26.6479 11.7113 26.5795 11.5045C26.5111 11.2971 26.6854 11.1794 26.8553 11.2629C27.0285 11.3509 27.2521 11.6093 27.2521 11.7472C27.2521 11.8851 26.9119 11.8683 26.8189 11.8318ZM23.0969 11.8122C22.9304 11.9602 22.5044 11.9053 22.2914 11.7388C22.0795 11.5734 22.4265 11.3004 22.5531 11.2904C22.8368 11.2651 23.2628 11.662 23.0969 11.8122ZM19.6507 13.4815C19.5346 13.6715 19.2157 15.0891 19.0033 14.9238C18.7892 14.7578 19.0913 13.2791 19.1535 13.167C19.487 12.5561 20.2079 12.5874 19.6507 13.4815ZM20.7903 18.9798C19.9663 18.9787 19.172 18.8576 18.4203 18.6373C18.3122 18.5487 18.251 18.4013 18.3189 18.2248C18.5807 17.5448 19.3581 17.2797 19.9713 17.2214C21.339 17.0897 23.135 18.1132 23.4209 17.9489C23.7079 17.7847 24.2869 17.0336 25.1356 17.0667C25.714 17.0897 25.7095 17.1866 25.904 17.26C24.4842 18.3402 22.7129 18.9826 20.7903 18.9798ZM26.741 16.533C26.6563 16.5095 26.57 16.4821 26.4763 16.435C26.0162 16.2001 26.0705 16.5746 25.8446 16.4916C25.617 16.4069 26.1008 15.8822 25.4203 16.3257C24.7426 16.7679 24.9259 16.2567 24.6317 15.5056C24.3345 14.7539 24.9741 13.898 25.5072 13.7046C26.2398 13.4406 26.6949 13.3873 27.0386 13.3027C28.052 13.051 28.2667 12.4506 28.45 12.8167C28.4848 12.8851 28.5184 12.9501 28.5487 13.0118C28.6075 13.1211 28.6753 13.3425 28.6781 13.5611C28.2466 14.6877 27.5818 15.699 26.741 16.533ZM29.0565 12.2791C28.8306 12.2169 27.8856 10.9064 28.635 10.046C28.76 9.90468 28.3845 9.48769 28.4876 9.47924C28.8967 9.44787 29.1148 9.70234 29.2213 10.069C29.2297 10.2303 29.2359 10.3935 29.2353 10.5577C29.2348 11.148 29.172 11.7231 29.0565 12.2791Z" fill="white"/>
</svg>
