<svg width="24" height="25" viewBox="0 0 24 25" fill="none" xmlns="http://www.w3.org/2000/svg">
<path d="M18.5 12.8359V16.5359C18.5 19.6559 15.59 22.1859 12 22.1859C8.41 22.1859 5.5 19.6559 5.5 16.5359V12.8359C5.5 15.9559 8.41 18.1859 12 18.1859C15.59 18.1859 18.5 15.9559 18.5 12.8359Z" stroke="white" stroke-width="1.5" stroke-linecap="round" stroke-linejoin="round"/>
<path d="M18.5 7.83604C18.5 8.74604 18.25 9.58603 17.81 10.306C16.74 12.066 14.54 13.186 12 13.186C9.46 13.186 7.26 12.066 6.19 10.306C5.75 9.58603 5.5 8.74604 5.5 7.83604C5.5 6.27604 6.22999 4.86603 7.39999 3.84604C8.57999 2.81604 10.2 2.18604 12 2.18604C13.8 2.18604 15.42 2.81604 16.6 3.83604C17.77 4.86604 18.5 6.27604 18.5 7.83604Z" stroke="white" stroke-width="1.5" stroke-linecap="round" stroke-linejoin="round"/>
<path d="M18.5 7.83604V12.836C18.5 15.956 15.59 18.186 12 18.186C8.41 18.186 5.5 15.956 5.5 12.836V7.83604C5.5 4.71604 8.41 2.18604 12 2.18604C13.8 2.18604 15.42 2.81604 16.6 3.83604C17.77 4.86604 18.5 6.27604 18.5 7.83604Z" stroke="white" stroke-width="1.5" stroke-linecap="round" stroke-linejoin="round"/>
</svg>
