<svg width="26" height="35" viewBox="0 0 26 35" fill="none" xmlns="http://www.w3.org/2000/svg">
<path d="M25.8941 -0.00439453H17.7196C17.6636 -0.00439453 17.6157 0.042172 17.6157 0.100228V2.81662C17.6157 2.87467 17.6636 2.92124 17.7196 2.92124H20.9746L17.36 6.53584C15.5396 5.10535 13.2488 4.24979 10.759 4.24979C4.85582 4.24979 0.0517578 9.05252 0.0517578 14.9565C0.0517578 20.3922 4.12445 24.8906 9.37719 25.5715V28.7015H6.1526C6.09259 28.7015 6.04737 28.7474 6.04737 28.8047V31.7162C6.04737 31.7742 6.09259 31.8201 6.1526 31.8201H9.37719V34.9009C9.37719 34.9584 9.42315 35.0042 9.48108 35.0042H12.3913C12.4486 35.0042 12.4965 34.9584 12.4965 34.9009V31.8201H15.7204C15.7777 31.8201 15.8243 31.7742 15.8243 31.7162V28.8047C15.8243 28.7474 15.7777 28.7015 15.7204 28.7015H12.4965V25.5201C17.5766 24.6868 21.4658 20.2687 21.4658 14.9565C21.4658 12.665 20.7404 10.5417 19.5097 8.79817L23.073 5.2349V8.2753C23.073 8.33263 23.121 8.3792 23.1783 8.3792H25.8941C25.9521 8.3792 26 8.33263 26 8.2753V0.100228C26 0.042172 25.9521 -0.00439453 25.8941 -0.00439453ZM10.759 22.8373C6.41306 22.8373 2.87888 19.3018 2.87888 14.9565C2.87888 10.6112 6.41306 7.07557 10.759 7.07557C15.105 7.07557 18.6399 10.6112 18.6399 14.9565C18.6399 19.3018 15.105 22.8373 10.759 22.8373Z" fill="white"/>
</svg>
