<svg width="37" height="27" viewBox="0 0 37 27" fill="none" xmlns="http://www.w3.org/2000/svg">
<path d="M37 14.2256C37 12.7094 36.0272 11.4801 34.5535 11.4801C33.8173 11.4801 32.9285 12.2871 32.4454 12.7835C31.9628 12.2866 31.1332 11.479 30.3963 11.479C28.9227 11.479 27.8901 12.7083 27.8901 14.225C27.8901 14.9829 28.1887 15.6694 28.6717 16.1663L32.4487 19.9505L36.2207 16.1707L36.2179 16.168C36.701 15.6711 37 14.984 37 14.2256Z" fill="white"/>
<path d="M20.9117 26.1362C20.899 26.1362 20.8863 26.1356 20.873 26.1351C20.5861 26.1174 20.349 25.9046 20.3004 25.6211L18.3818 14.4471L15.4754 19.8354C15.3482 20.0714 15.0824 20.1985 14.8209 20.1515C14.5573 20.1046 14.3539 19.894 14.3157 19.6292L13.082 11.0057L10.8245 16.0756C10.725 16.2994 10.5029 16.4437 10.258 16.4437H1.4847C1.14202 16.4437 0.864502 16.1656 0.864502 15.8235C0.864502 15.4808 1.14202 15.2033 1.4847 15.2033H9.85501L12.8244 8.53439C12.9366 8.28177 13.2025 8.13419 13.4766 8.17231C13.7502 8.21043 13.9658 8.42493 14.0051 8.69855L15.2769 17.5907L18.143 12.2765C18.2684 12.0427 18.5282 11.9155 18.7897 11.9587C19.0506 12.0012 19.2557 12.2052 19.3004 12.4661L21.077 22.8147L27.5525 1.30495C27.626 1.06004 27.8426 0.88542 28.0974 0.865482C28.3528 0.846691 28.5938 0.983809 28.705 1.21427L32.1121 8.27788C32.2608 8.58634 32.1315 8.9572 31.823 9.10593C31.5146 9.25459 31.1437 9.12526 30.995 8.8168L28.2804 3.18923L21.5053 25.6945C21.4263 25.9582 21.1836 26.1362 20.9117 26.1362Z" fill="white"/>
</svg>
