<svg width="181" height="34" viewBox="0 0 181 34" fill="none" xmlns="http://www.w3.org/2000/svg">
<path d="M161.453 26.9149H167.957C168.209 27.7349 169.067 28.5548 170.675 28.5548C172.852 28.5548 173.602 27.2026 173.602 25.2031V23.7789H173.458C172.384 25.0304 170.956 25.9511 168.851 25.9511C164.705 25.9511 161.1 22.887 161.1 16.8955C161.1 11.4076 164.063 7.12792 168.534 7.12792C171.108 7.12792 172.679 8.16366 173.718 9.80359H173.826V7.70333H180.257V24.3112C180.257 27.3752 179.183 29.7632 177.575 31.1945C175.895 32.6906 173.501 33.2948 170.783 33.2948C165.671 33.2948 162.102 31.1874 161.453 26.9149ZM173.891 16.5719C173.891 14.1839 172.751 12.2563 170.783 12.2563C168.887 12.2563 167.676 13.9681 167.676 16.5719C167.676 19.1397 168.894 20.9882 170.783 20.9882C172.744 20.9954 173.891 19.1037 173.891 16.5719ZM153.919 10.976H154.027C155.418 8.30033 157.243 7.30774 159.564 7.30774C160.098 7.30774 160.458 7.37966 160.675 7.48755V13.3711H160.53C156.565 12.6591 154.243 14.5507 154.243 18.8591V26.879H147.487V7.70333H153.919V10.976ZM0.25 0H13.4733C15.9752 0 17.9003 0.604183 19.263 1.71185C20.7988 2.95618 21.6207 4.81189 21.6207 7.02003C21.6207 9.58781 20.5825 11.1918 18.4411 12.1916V12.2994C21.2314 13.2273 22.8392 15.7231 22.8392 18.7513C22.8392 21.6355 21.7289 23.8868 19.9119 25.239C18.3762 26.3467 16.379 26.879 13.7329 26.879H0.25V0ZM12.8316 20.9234C14.4395 20.9234 15.6147 19.9596 15.6147 18.1758C15.6147 16.3201 14.3313 15.4282 12.7956 15.4282H7.57546V20.9162H12.8316V20.9234ZM12.1467 10.5157C13.5743 10.5157 14.6125 9.73166 14.6125 8.16366C14.6125 6.63163 13.5382 5.88359 12.1106 5.88359H7.57546V10.5157H12.1467Z" fill="#344054"/>
<path d="M24.0505 0H30.9794V26.879H24.0505V0ZM32.306 17.3199C32.306 11.2637 36.2355 7.16388 42.3137 7.16388C48.3918 7.16388 52.2492 11.2637 52.2492 17.3199C52.2492 23.4193 48.3918 27.4759 42.3137 27.4759C36.2355 27.4831 32.306 23.4193 32.306 17.3199ZM45.3852 17.3199C45.3852 13.9681 44.3108 11.8679 42.2416 11.8679C40.1723 11.8679 39.1701 13.9681 39.1701 17.3199C39.1701 20.7077 40.1723 22.8079 42.2416 22.8079C44.3108 22.8151 45.3852 20.7077 45.3852 17.3199ZM53.0351 17.3199C53.0351 11.2637 56.9646 7.16388 63.0427 7.16388C69.1208 7.16388 72.9782 11.2637 72.9782 17.3199C72.9782 23.4193 69.1208 27.4759 63.0427 27.4759C56.9646 27.4831 53.0351 23.4193 53.0351 17.3199ZM66.1142 17.3199C66.1142 13.9681 65.0399 11.8679 62.9706 11.8679C60.9013 11.8679 59.8991 13.9681 59.8991 17.3199C59.8991 20.7077 60.9013 22.8079 62.9706 22.8079C65.0399 22.8151 66.1142 20.7077 66.1142 17.3199ZM74.2976 7.70333H80.729V10.5876H80.8372C82.1206 8.34348 83.8726 7.12792 86.6269 7.12792C89.0567 7.12792 90.8808 8.33629 91.8109 10.4437H91.9191C93.4909 7.91192 95.5313 7.12792 97.889 7.12792C102.359 7.12792 104.284 10.4078 104.284 14.8241V26.8718H97.5285V16.0396C97.5285 14.076 96.9229 12.7957 95.2069 12.7957C93.5269 12.7957 92.6689 14.3637 92.6689 16.4352V26.879H85.9059V16.0396C85.9059 14.076 85.3002 12.7957 83.5842 12.7957C81.9043 12.7957 81.0463 14.3637 81.0463 16.4352V26.879H74.2976V7.70333ZM112.533 24.3831H112.461V26.879H106.029V0H112.785V9.6957H112.893C114.177 8.01981 115.893 7.12792 118.358 7.12792C123.182 7.12792 125.972 11.4795 125.972 17.248C125.972 23.7717 122.937 27.5119 117.933 27.5119C115.857 27.5191 113.715 26.5193 112.533 24.3831ZM119.108 17.1833C119.108 14.0832 117.969 12.0837 115.929 12.0837C113.859 12.0837 112.533 14.0832 112.533 17.1833C112.533 20.2473 113.852 22.2828 115.929 22.2828C117.998 22.2757 119.108 20.2833 119.108 17.1833ZM126.83 17.2552C126.83 11.2637 130.796 7.09915 136.55 7.09915C139.405 7.09915 141.625 7.99104 143.305 9.595C145.519 11.7312 146.521 15.083 146.449 19.039H133.55C133.839 21.4269 134.978 22.6425 137.018 22.6425C138.201 22.6425 139.232 22.1102 139.664 20.8227H146.168C145.029 25.2031 141.633 27.4184 136.809 27.4184C130.832 27.4112 126.83 23.3833 126.83 17.2552ZM133.55 15.2556H139.693C139.585 12.9396 138.302 11.724 136.694 11.724C134.834 11.724 133.795 13.0475 133.55 15.2556Z" fill="#344054"/>
</svg>
