<svg width="238" height="35" viewBox="0 0 238 35" fill="none" xmlns="http://www.w3.org/2000/svg">
<path d="M89.4746 13.6197V28.4764H84.0498V13.6197H78.5629V8.88971H94.946V13.6197H89.4746Z" fill="#344054"/>
<path d="M107.625 22.5682H99.0069C99.1774 24.1965 100.123 24.9099 101.502 24.9099C102.789 24.9099 103.858 24.6308 105.3 23.8709L107.222 27.0965C105.408 28.1666 103.533 28.7714 101.239 28.7714C96.8215 28.7714 94.388 25.6388 94.388 21.1259C94.388 16.0548 97.24 13.4649 101.099 13.4649C105.129 13.4649 107.64 16.1168 107.64 21.5757C107.64 22.0099 107.64 22.3201 107.625 22.5682ZM100.96 17.2024C99.8129 17.2024 99.1774 17.9933 99.0069 19.4356H103.207C102.944 17.9468 102.448 17.2024 100.96 17.2024Z" fill="#344054"/>
<path d="M116.987 28.7866C112.678 28.7866 110.105 26.0416 110.105 21.0945C110.105 16.5817 112.399 13.4801 117.095 13.4801C119.869 13.4801 121.45 14.7673 122.737 16.8298L119.265 19.4662C118.567 18.179 118.087 17.5587 117.002 17.5587C115.716 17.5587 115.065 18.8459 115.065 21.1721C115.065 23.4983 115.762 24.6924 117.142 24.6924C118.087 24.6924 118.769 24.1651 119.683 22.7849L122.876 25.2817C121.171 27.794 119.59 28.7866 116.987 28.7866Z" fill="#344054"/>
<path d="M134.145 28.4766V20.1332C134.145 18.2257 133.509 17.7295 132.471 17.7295C131.401 17.7295 130.766 18.2257 130.766 20.0867V28.4766H125.728V10.084L130.766 8.06794V14.7674C131.696 14.0696 132.719 13.4803 134.455 13.4803C137.678 13.4803 139.213 15.6359 139.213 19.4974V28.4766H134.145Z" fill="#344054"/>
<path d="M151.256 28.7868C145.444 28.7868 142.328 24.4755 142.328 18.691C142.328 12.3947 146.017 8.59525 151.272 8.59525C156.077 8.59525 157.983 10.6733 159.331 14.3643L154.418 16.2717C153.721 14.4573 153.054 13.3097 151.256 13.3097C148.993 13.3097 148.017 15.5739 148.017 18.6755C148.017 21.6686 148.962 24.0413 151.318 24.0413C153.023 24.0413 153.752 23.1108 154.806 21.2654L159.393 23.7001C158.092 26.29 155.906 28.7868 151.256 28.7868Z" fill="#344054"/>
<path d="M171.778 19.3269C171.142 18.6291 170.414 18.1018 169.437 18.1018C168.213 18.1018 167.453 18.6911 167.453 20.4745V28.4767H162.416V13.7906H167.453V14.8606C168.321 14.0232 169.298 13.4959 170.584 13.4959C171.654 13.4959 172.367 13.744 172.956 14.1162L171.778 19.3269Z" fill="#344054"/>
<path d="M183.743 28.4766V27.4996C182.844 28.1975 181.79 28.7868 180.085 28.7868C176.862 28.7868 175.327 26.6312 175.327 22.7697V13.7905H180.395V22.1338C180.395 24.0413 181.031 24.5376 182.069 24.5376C183.108 24.5376 183.743 24.0413 183.743 22.1803V13.7905H188.812V28.4766H183.743Z" fill="#344054"/>
<path d="M200.855 28.4764V20.1331C200.855 18.2256 200.22 17.7293 199.181 17.7293C198.112 17.7293 197.476 18.2256 197.476 20.0865V28.4764H192.439V13.7902H197.476V14.7673C198.406 14.0694 199.429 13.4801 201.165 13.4801C204.389 13.4801 205.923 15.6357 205.923 19.4972V28.4764H200.855Z" fill="#344054"/>
<path d="M215.735 28.7866C211.426 28.7866 208.853 26.0416 208.853 21.0945C208.853 16.5817 211.147 13.4801 215.843 13.4801C218.618 13.4801 220.199 14.7673 221.485 16.8298L218.013 19.4662C217.316 18.179 216.835 17.5587 215.75 17.5587C214.464 17.5587 213.813 18.8459 213.813 21.1721C213.813 23.4983 214.51 24.6924 215.89 24.6924C216.835 24.6924 217.517 24.1651 218.432 22.7849L221.625 25.2817C219.92 27.794 218.339 28.7866 215.735 28.7866Z" fill="#344054"/>
<path d="M232.893 28.4766V20.1332C232.893 18.2257 232.257 17.7295 231.219 17.7295C230.149 17.7295 229.514 18.2257 229.514 20.0867V28.4766H224.476V10.084L229.514 8.06794V14.7674C230.444 14.0696 231.467 13.4803 233.203 13.4803C236.427 13.4803 237.961 15.6359 237.961 19.4974V28.4766H232.893Z" fill="#344054"/>
<path d="M0.041748 0.5V11.6968H11.2325V34.075H22.4077V11.6968H33.5984V0.5H0.041748Z" fill="#344054"/>
<path d="M44.7737 22.8783V11.6969L33.5984 11.6968L33.5984 34.0751H67.1397V22.8783H44.7737Z" fill="#344054"/>
<path d="M67.1397 0.5H44.7737L44.7737 11.6969L67.1397 11.6968V0.5Z" fill="#344054"/>
</svg>
