<svg width="115" height="29" viewBox="0 0 115 29" fill="none" xmlns="http://www.w3.org/2000/svg">
<path fill-rule="evenodd" clip-rule="evenodd" d="M70.0531 8.13823C68.2216 8.13823 66.7717 8.51852 65.3218 9.35516C65.3218 5.17196 65.3218 1.29299 65.4744 0L56.5461 1.59722V2.3578L57.4618 2.50992C58.6828 2.7381 59.0643 3.42262 59.2933 5.01984C59.5222 8.21429 59.4459 25.0232 59.2933 27.8373C61.6589 28.3697 64.1772 28.75 66.6954 28.75C73.716 28.75 77.9131 24.4147 77.9131 17.5694C77.9894 12.0933 74.5554 8.13823 70.0531 8.13823ZM67.0006 27.2288C66.4665 27.2288 65.7797 27.2288 65.3981 27.0767C65.2455 25.2513 65.1692 17.4934 65.2455 10.6481C66.0086 10.42 66.5428 10.2679 67.2296 10.2679C70.1294 10.2679 71.7319 13.6905 71.7319 17.8737C71.7319 23.1978 69.7478 27.2288 67.0006 27.2288Z" fill="#344054"/>
<path fill-rule="evenodd" clip-rule="evenodd" d="M23.2747 0.532276H0V1.74921L1.29728 1.90132C3.05242 2.1295 3.66291 3.19431 3.96815 5.70423C4.3497 10.4198 4.19708 19.0144 3.96815 23.1216C3.73922 25.6315 3.05242 26.7724 1.29728 26.9245L0 27.1526V28.2175H14.9569V27.1526L13.3543 26.9245C11.5992 26.7724 10.9887 25.6315 10.6835 23.1216C10.5309 21.3722 10.4545 18.6341 10.4545 15.2115L13.6596 15.3636C15.6437 15.3636 16.5594 16.9608 16.9409 19.1665H18.1619V9.73532H16.9409C16.5594 11.941 15.6437 13.5382 13.6596 13.5382L10.4545 13.6903C10.4545 9.20291 10.6072 5.01971 10.6835 2.50979H15.3384C18.925 2.50979 20.7565 4.71548 22.0537 8.6705L23.351 8.29021L23.2747 0.532276Z" fill="#344054"/>
<path fill-rule="evenodd" clip-rule="evenodd" d="M30.7532 7.9101C37.3922 7.9101 40.6735 12.3975 40.6735 18.3301C40.6735 23.9584 37.0106 28.75 30.3716 28.75C23.7326 28.75 20.4512 24.2626 20.4512 18.3301C20.4512 12.6257 24.1904 7.9101 30.7532 7.9101ZM30.3716 9.20309C27.4718 9.20309 26.7087 13.1581 26.7087 18.254C26.7087 23.2739 28.006 27.3049 30.6768 27.3049C33.7293 27.3049 34.4924 23.3499 34.4924 18.254C34.4924 13.3102 33.1951 9.20309 30.3716 9.20309Z" fill="#344054"/>
<path fill-rule="evenodd" clip-rule="evenodd" d="M79.6682 18.4062C79.6682 13.0061 83.1022 7.8341 89.8175 7.8341C95.3882 7.8341 97.9827 11.9412 97.9827 17.3414H85.6967C85.5441 22.2091 87.9098 25.7838 92.7173 25.7838C94.854 25.7838 95.9223 25.2514 97.2196 24.3387L97.7538 25.0233C96.4565 26.8487 93.5567 28.6741 89.8175 28.6741C83.9416 28.7501 79.6682 24.4908 79.6682 18.4062ZM85.7731 15.9723L91.9542 15.8202C91.9542 13.1582 91.5727 9.20315 89.2833 9.20315C87.0703 9.20315 85.9257 12.93 85.7731 15.9723Z" fill="#344054"/>
<path fill-rule="evenodd" clip-rule="evenodd" d="M113.779 8.97492C112.176 8.29039 110.116 7.9101 107.674 7.9101C102.79 7.9101 99.7379 10.8003 99.7379 14.2229C99.7379 17.6456 101.951 19.0907 105.156 20.1555C108.437 21.3724 109.353 22.2851 109.353 23.8063C109.353 25.4035 108.132 26.8486 106.072 26.8486C103.553 26.8486 101.722 25.4035 100.272 21.4485L99.3563 21.6766L99.5089 27.4571C101.111 28.1416 104.011 28.674 106.53 28.674C111.719 28.674 115 26.012 115 21.9809C115 19.2428 113.55 17.6456 110.116 16.3526C106.453 14.9075 105.08 13.9948 105.08 12.2454C105.08 10.4961 106.301 9.35521 107.827 9.35521C110.192 9.35521 111.795 10.8003 113.016 14.3751L113.932 14.1469L113.779 8.97492Z" fill="#344054"/>
<path fill-rule="evenodd" clip-rule="evenodd" d="M57.8434 8.4426C55.6304 7.14961 51.6622 7.75807 49.5255 12.5497L49.6782 7.91019L40.8261 9.65953V10.4201L41.7419 10.5722C42.9628 10.7243 43.497 11.3328 43.5733 13.0821C43.8023 16.2766 43.7259 21.7528 43.5733 24.5669C43.4207 26.1642 42.8865 26.9247 41.7419 27.0769L40.8261 27.229V28.2938H53.1121V27.229L51.5096 27.0769C50.2123 26.9247 49.7545 26.1642 49.6782 24.5669C49.4492 22.057 49.4492 17.0372 49.5255 13.9188C50.2123 13.0061 53.1121 12.1694 55.7067 13.9188L57.8434 8.4426Z" fill="#344054"/>
</svg>
