<svg width="62" height="25" viewBox="0 0 62 25" fill="none" xmlns="http://www.w3.org/2000/svg">
<path d="M54.3088 2.26827C54.3088 1.11324 55.3297 0.177979 56.5876 0.177979C57.8431 0.177979 58.8606 1.11324 58.8606 2.26827C58.8606 3.42273 57.8431 4.35786 56.5876 4.35786C55.3297 4.35786 54.3088 3.42273 54.3088 2.26827Z" fill="white"/>
<path d="M59.2443 5.16346C60.7892 5.29206 61.9999 6.48425 61.9999 7.93827V13.7301C61.9999 14.1761 61.605 14.54 61.1183 14.54C60.6289 14.54 60.2349 14.1761 60.2349 13.7301V8.75587C60.2349 8.56921 60.1758 8.31678 59.8046 8.31678C59.5472 8.31678 59.4942 8.56697 59.484 8.72558V23.6353C59.484 24.2763 58.9188 24.799 58.2167 24.799C57.5148 24.799 56.9461 24.2763 56.9461 23.6353V15.0432C56.9428 14.9488 56.9082 14.7025 56.5868 14.7025H56.5851C56.2619 14.7025 56.2223 14.9488 56.219 15.0432V23.6353C56.219 24.2763 55.6537 24.799 54.9517 24.799C54.2489 24.799 53.6836 24.2763 53.6836 23.6353V8.72558C53.6752 8.56697 53.6195 8.31678 53.3648 8.31678C52.991 8.31678 52.9344 8.56921 52.9344 8.75587V13.7301C52.9344 14.1761 52.5388 14.54 52.0511 14.54C51.5627 14.54 51.1694 14.1761 51.1694 13.7301V7.93827C51.1694 6.48425 52.381 5.29206 53.9283 5.16346C53.979 5.15729 54.0346 5.15112 54.0953 5.15112H59.0715C59.1364 5.15112 59.1896 5.15729 59.2443 5.16346Z" fill="white"/>
<path d="M40.7692 3.36584C40.7692 2.2735 39.8066 1.3855 38.6153 1.3855C37.4233 1.3855 36.458 2.2735 36.458 3.36584C36.458 4.45902 37.4233 5.34478 38.6153 5.34478C39.8066 5.34478 40.7692 4.45902 40.7692 3.36584Z" fill="white"/>
<path d="M34.271 7.8475L32.4789 13.2019C32.4789 13.2019 32.1592 14.1829 33.067 14.4283C33.9697 14.6737 34.2439 13.7152 34.2439 13.7152L35.6892 9.24641C35.6892 9.24641 35.7676 8.90268 36.0486 8.97701C36.3305 9.05133 36.225 9.41919 36.225 9.41919L33.7099 17.7937H36.0486V23.7915C36.0486 24.3591 36.5524 24.8204 37.1733 24.8204C37.7933 24.8204 38.2946 24.3591 38.2946 23.7915V17.7937H38.9332V23.7915C38.9332 24.3591 39.4334 24.8204 40.0553 24.8204C40.6779 24.8204 41.1807 24.3591 41.1807 23.7915V17.7937H43.5187L41.0053 9.41919C41.0053 9.41919 40.8998 9.05133 41.1807 8.97701C41.4625 8.90268 41.5411 9.24641 41.5411 9.24641L42.9862 13.7152C42.9862 13.7152 43.2605 14.6737 44.1624 14.4283C45.0718 14.1829 44.7504 13.2019 44.7504 13.2019L42.9584 7.8475C42.9584 7.8475 42.318 6.2998 40.8998 6.2998H36.3305C34.913 6.2998 34.271 7.8475 34.271 7.8475Z" fill="white"/>
<path d="M27.8559 3.36584C27.8559 2.2735 26.8916 1.3855 25.7012 1.3855C24.509 1.3855 23.5447 2.2735 23.5447 3.36584C23.5447 4.45902 24.509 5.34478 25.7012 5.34478C26.8916 5.34478 27.8559 4.45902 27.8559 3.36584Z" fill="white"/>
<path d="M21.3562 7.8475L19.5649 13.2019C19.5649 13.2019 19.2444 14.1829 20.1522 14.4283C21.055 14.6737 21.3282 13.7152 21.3282 13.7152L22.7744 9.24641C22.7744 9.24641 22.8528 8.90268 23.1337 8.97701C23.4164 9.05133 23.3093 9.41919 23.3093 9.41919L20.795 17.7937H23.1337V23.7915C23.1337 24.3591 23.6391 24.8204 24.2584 24.8204C24.8793 24.8204 25.3806 24.3591 25.3806 23.7915V17.7937H26.0192V23.7915C26.0192 24.3591 26.5187 24.8204 27.1422 24.8204C27.7648 24.8204 28.2659 24.3591 28.2659 23.7915V17.7937H30.6046L28.0922 9.41919C28.0922 9.41919 27.985 9.05133 28.2659 8.97701C28.5468 8.90268 28.6261 9.24641 28.6261 9.24641L30.0705 13.7152C30.0705 13.7152 30.3456 14.6737 31.2476 14.4283C32.1561 14.1829 31.8355 13.2019 31.8355 13.2019L30.0427 7.8475C30.0427 7.8475 29.404 6.2998 27.985 6.2998H23.4164C21.999 6.2998 21.3562 7.8475 21.3562 7.8475Z" fill="white"/>
<path d="M48.0101 14.44C49.0031 14.44 49.8038 13.703 49.8038 12.7918C49.8038 11.8813 49.0031 11.1458 48.0101 11.1458C47.0171 11.1458 46.2156 11.8813 46.2156 12.7918C46.2156 13.703 47.0171 14.44 48.0101 14.44Z" fill="white"/>
<path d="M43.7073 19.5559C43.6195 19.7486 43.5477 20.1567 43.9687 20.3348C44.4631 20.5431 44.7382 20.1048 44.7382 20.1048L45.7136 17.2504C45.7136 17.2504 45.883 17.0591 45.883 17.2566V23.9775H45.8873C45.8873 24.445 46.2974 24.8221 46.8078 24.8221C47.3173 24.8221 47.7283 24.445 47.7283 23.9775V21.3249C47.7283 21.3249 47.6751 20.9502 48.0049 20.9502C48.3339 20.9502 48.2833 21.3249 48.2833 21.3249V23.9775C48.2833 24.445 48.696 24.8221 49.2055 24.8221C49.7133 24.8221 50.1286 24.445 50.1286 23.9775V17.2566C50.1286 17.0591 50.2415 17.2 50.2415 17.2L51.0067 19.1549C51.0067 19.1549 51.3383 20.029 51.4404 20.0668C51.7855 20.2001 52.1845 20.049 52.3305 19.7293C52.4251 19.521 52.3887 19.2973 52.2571 19.1286L52.2639 19.1223C52.242 19.0596 51.1207 16.5366 50.9891 16.1827C50.5841 15.0988 49.8475 15.1081 49.1379 15.0896C48.4285 15.0748 48.0049 15.0896 48.0049 15.0896C48.0049 15.0896 47.551 15.0733 46.6145 15.0988C45.6798 15.1252 45.3845 15.5657 44.3526 18.0005C44.205 18.352 43.7073 19.4862 43.7004 19.5544L43.7073 19.5559Z" fill="white"/>
<path d="M8.60065 2.2696C8.60065 1.11444 7.57978 0.178467 6.32183 0.178467C5.06642 0.178467 4.0481 1.11444 4.0481 2.2696C4.0481 3.42392 5.06642 4.35919 6.32183 4.35919C7.57978 4.35919 8.60065 3.42392 8.60065 2.2696Z" fill="white"/>
<path d="M3.66379 5.16346C2.11984 5.29206 0.907471 6.48425 0.907471 7.93827V13.7301C0.907471 14.1761 1.30315 14.54 1.79081 14.54C2.27846 14.54 2.6733 14.1761 2.6733 13.7301V8.75587C2.6733 8.56921 2.73236 8.31678 3.10443 8.31678C3.3609 8.31678 3.41405 8.56697 3.42503 8.72558V23.6353C3.42503 24.2763 3.98945 24.799 4.69225 24.799C5.39334 24.799 5.96031 24.2763 5.96031 23.6353V15.0432C5.96537 14.9488 5.99911 14.7025 6.32225 14.7025C6.64539 14.7025 6.68587 14.9488 6.68841 15.0432V23.6353C6.68841 24.2763 7.25452 24.799 7.95563 24.799C8.65842 24.799 9.22453 24.2763 9.22453 23.6353V8.72558C9.23129 8.56697 9.2895 8.31678 9.54429 8.31678C9.91805 8.31678 9.97372 8.56921 9.97372 8.75587V13.7301C9.97372 14.1761 10.3694 14.54 10.8571 14.54C11.3447 14.54 11.7396 14.1761 11.7396 13.7301V7.93827C11.7396 6.48425 10.528 5.29206 8.98071 5.16346C8.92924 5.15729 8.87441 5.15112 8.81366 5.15112H3.83758C3.77178 5.15112 3.71778 5.15729 3.66379 5.16346Z" fill="white"/>
<path d="M12.8193 13.5763C12.7012 13.4075 12.4987 13.2944 12.265 13.2944C11.9048 13.2944 11.6111 13.5638 11.6111 13.8937C11.6111 13.9889 11.6753 14.1569 11.6753 14.1569L13.485 17.1616C13.485 17.1616 13.5955 17.3683 13.5955 17.5572V24.0087H13.5989C13.5989 24.4593 13.9946 24.8208 14.4839 24.8208C14.9716 24.8208 15.3656 24.4593 15.3656 24.0087V21.4632C15.3656 21.4632 15.3158 21.1032 15.633 21.1032C15.9486 21.1032 15.8995 21.4632 15.8995 21.4632V24.0087C15.8995 24.4593 16.2961 24.8208 16.7846 24.8208C17.2732 24.8208 17.6705 24.4593 17.6705 24.0087V17.5572C17.6705 17.3683 17.7802 17.1616 17.7802 17.1616L19.4523 14.3876C19.4523 14.3876 19.6565 13.9889 19.6565 13.8937C19.6565 13.5638 19.3646 13.2944 19.0027 13.2944C18.7664 13.2944 18.5639 13.4075 18.4493 13.5763L18.4417 13.5732C18.3894 13.6142 17.5516 14.9831 17.2756 15.2362C16.9829 15.5072 16.7213 15.477 16.7213 15.477H14.5472C14.5472 15.477 14.2831 15.5072 13.992 15.2362C13.712 14.9831 12.8783 13.6142 12.8244 13.5732L12.8193 13.5763Z" fill="white"/>
<path d="M15.6333 14.44C16.6264 14.44 17.4271 13.703 17.4271 12.7918C17.4271 11.8813 16.6264 11.1458 15.6333 11.1458C14.6412 11.1458 13.8396 11.8813 13.8396 12.7918C13.8396 13.703 14.6412 14.44 15.6333 14.44Z" fill="white"/>
<path d="M15.6363 16.7505L17.6644 18.1077L18.628 21.3648H12.6421L13.6081 18.1077L15.6363 16.7505Z" fill="white"/>
</svg>
