<svg width="22" height="22" viewBox="0 0 22 22" fill="none" xmlns="http://www.w3.org/2000/svg">
<path d="M9 2.18604H5.8C4.11984 2.18604 3.27976 2.18604 2.63803 2.51302C2.07354 2.80064 1.6146 3.25958 1.32698 3.82406C1 4.4658 1 5.30588 1 6.98603V15.386C1 17.0662 1 17.9063 1.32698 18.548C1.6146 19.1125 2.07354 19.5714 2.63803 19.8591C3.27976 20.186 4.11984 20.186 5.8 20.186H14.2C15.8802 20.186 16.7202 20.186 17.362 19.8591C17.9265 19.5714 18.3854 19.1125 18.673 18.548C19 17.9063 19 17.0662 19 15.386V12.186M10 7.18604H14V11.186M13.5 2.68604V1.18604M17.4393 3.7467L18.5 2.68604M18.5103 7.68604H20.0103M1 12.5331C1.65194 12.6338 2.31987 12.686 3 12.686C7.38636 12.686 11.2653 10.5136 13.6197 7.18604" stroke="white" stroke-width="2" stroke-linecap="round" stroke-linejoin="round"/>
</svg>
