<svg width="120" height="120" viewBox="0 0 120 120" fill="none" xmlns="http://www.w3.org/2000/svg">
<g clip-path="url(#clip0_51_2913)">
<rect width="120" height="120" rx="60" fill="#12382D"/>
<rect x="44" y="44" width="32" height="32" rx="16" fill="white"/>
<path d="M57.7979 55.4922L64.2361 55.4922L64.2361 61.9304" stroke="#000100" stroke-width="1.2" stroke-miterlimit="10" stroke-linecap="round" stroke-linejoin="round"/>
<path d="M55.2197 64.5078L64.1452 55.5824" stroke="#000100" stroke-width="1.2" stroke-miterlimit="10" stroke-linecap="round" stroke-linejoin="round"/>
<path d="M20.0796 58.5346L9.92037 58.4315L9.98218 52.34L11.0735 52.351L11.0242 57.2124L14.4569 57.2472L14.5016 52.8422L15.5929 52.8533L15.5482 57.2583L20.0921 57.3044L20.0796 58.5346Z" fill="white"/>
<path d="M21.6824 48.4527C21.5495 49.1748 21.2755 49.7684 20.8604 50.2334C20.4427 50.6946 19.9199 51.0137 19.2921 51.1907C18.6617 51.3639 17.9626 51.3799 17.195 51.2387C16.4274 51.0974 15.7766 50.8331 15.2426 50.4457C14.7059 50.0544 14.3197 49.5764 14.084 49.0118C13.8456 48.4433 13.7886 47.8208 13.9131 47.1443C13.9849 46.754 14.1209 46.3805 14.321 46.0239C14.5211 45.6673 14.7963 45.3598 15.1465 45.1014C15.4934 44.8424 15.923 44.6642 16.4352 44.5668C16.9475 44.4693 17.5533 44.485 18.2526 44.6136L18.7405 44.7034L17.6776 50.4801L16.6823 50.2969L17.5297 45.6912C17.1069 45.6134 16.714 45.6286 16.3511 45.7367C15.9888 45.8415 15.6833 46.0308 15.4346 46.3045C15.1864 46.5749 15.024 46.9183 14.9474 47.3346C14.863 47.7932 14.9039 48.211 15.0699 48.5879C15.2333 48.961 15.479 49.2702 15.8072 49.5155C16.1353 49.7608 16.5059 49.9215 16.919 49.9975L17.5825 50.1196C18.1485 50.2237 18.6462 50.2144 19.0757 50.0917C19.5025 49.9651 19.8507 49.745 20.1202 49.4314C20.3865 49.1172 20.5625 48.7276 20.648 48.2624C20.7037 47.9599 20.7117 47.6789 20.672 47.4194C20.6297 47.1561 20.5388 46.9191 20.3993 46.7085C20.2566 46.4973 20.0641 46.3189 19.8218 46.1735L20.3387 45.1185C20.6945 45.305 20.9901 45.5629 21.2254 45.892C21.4575 46.2206 21.6159 46.6028 21.7004 47.0387C21.7817 47.474 21.7757 47.9453 21.6824 48.4527Z" fill="white"/>
<path d="M24.2629 41.7908C24.0092 42.4798 23.6384 43.0182 23.1503 43.4059C22.6602 43.7894 22.0909 44.015 21.4421 44.0828C20.7914 44.1464 20.0998 44.0434 19.3674 43.7738C18.6349 43.5041 18.0385 43.1331 17.5781 42.6605C17.1157 42.1837 16.8163 41.6471 16.68 41.0506C16.5416 40.4499 16.5912 39.8268 16.8289 39.1813C16.966 38.8088 17.1634 38.4639 17.4212 38.1465C17.679 37.829 18.0024 37.5728 18.3914 37.3776C18.7773 37.1814 19.231 37.0787 19.7523 37.0698C20.2737 37.0608 20.868 37.1791 21.5353 37.4247L22.0008 37.5961L19.9719 43.1082L19.0221 42.7586L20.6398 38.3638C20.2364 38.2153 19.8466 38.1635 19.4707 38.2084C19.0958 38.2501 18.7626 38.3847 18.4709 38.6121C18.1804 38.8365 17.9621 39.1473 17.8158 39.5446C17.6547 39.9822 17.624 40.4008 17.7236 40.8004C17.8212 41.1958 18.0108 41.5423 18.2925 41.8398C18.5742 42.1373 18.9121 42.3586 19.3063 42.5037L19.9394 42.7368C20.4794 42.9355 20.9715 43.0109 21.4156 42.963C21.8577 42.9107 22.2382 42.753 22.5571 42.4898C22.8729 42.2254 23.1125 41.8713 23.2759 41.4275C23.3821 41.1389 23.4378 40.8633 23.4428 40.6008C23.4458 40.3341 23.3965 40.0851 23.2948 39.8539C23.19 39.6215 23.0307 39.413 22.8166 39.2285L23.5053 38.2768C23.8242 38.521 24.0716 38.8253 24.2477 39.1897C24.4206 39.5529 24.5117 39.9564 24.5209 40.4004C24.5271 40.8432 24.4411 41.3066 24.2629 41.7908Z" fill="white"/>
<path d="M27.7768 35.9389C27.4594 36.4889 27.0403 36.8942 26.5194 37.1549C25.9957 37.414 25.4103 37.5153 24.7632 37.4587C24.1133 37.4006 23.4389 37.1698 22.7399 36.7664C22.0468 36.3663 21.5138 35.9003 21.1412 35.3683C20.7686 34.8363 20.5656 34.2781 20.5325 33.6938C20.4993 33.1095 20.6431 32.5396 20.9638 31.9839C21.2118 31.5542 21.4793 31.2561 21.7663 31.0896C22.0522 30.9185 22.3233 30.8192 22.5798 30.7916C22.8351 30.7594 23.0415 30.7392 23.1991 30.7308L23.2487 30.6449L20.0005 28.7702L20.5857 27.7562L29.3851 32.8348L28.8197 33.8144L27.8057 33.2292L27.7363 33.3495C27.8136 33.4934 27.9043 33.687 28.0082 33.9303C28.1093 34.1719 28.1579 34.4615 28.154 34.7991C28.1472 35.1351 28.0215 35.515 27.7768 35.9389ZM26.9453 35.2757C27.1801 34.869 27.2725 34.4641 27.2225 34.0611C27.1697 33.6564 26.9964 33.2719 26.7026 32.9075C26.406 32.5416 26.0084 32.2148 25.51 31.9271C25.0173 31.6428 24.5449 31.4656 24.0928 31.3955C23.6377 31.3239 23.2261 31.3688 22.8578 31.5305C22.4867 31.6906 22.1822 31.9768 21.9441 32.3893C21.6961 32.8189 21.5997 33.2406 21.655 33.6544C21.709 34.0636 21.8823 34.4481 22.1749 34.8079C22.4663 35.1631 22.844 35.4747 23.308 35.7425C23.7777 36.0136 24.2459 36.1883 24.7124 36.2666C25.1776 36.3404 25.6052 36.3008 25.9952 36.1479C26.3839 35.9904 26.7006 35.6997 26.9453 35.2757Z" fill="white"/>
<path d="M30.6985 32.3036L24.8891 27.3727L25.6468 26.4801L31.4561 31.411L30.6985 32.3036ZM24.3062 26.0971C24.1585 26.271 23.9719 26.3708 23.7464 26.3962C23.523 26.4192 23.3281 26.3601 23.1617 26.2188C22.9953 26.0776 22.9053 25.8949 22.8916 25.6707C22.8801 25.4441 22.9482 25.2438 23.0959 25.0698C23.2436 24.8958 23.4291 24.7973 23.6524 24.7744C23.878 24.7489 24.0739 24.8068 24.2403 24.948C24.4067 25.0893 24.4957 25.2732 24.5072 25.4999C24.5208 25.724 24.4538 25.9231 24.3062 26.0971Z" fill="white"/>
<path d="M30.7571 25.6978L33.9893 28.948L33.1592 29.7736L27.7861 24.3706L28.5881 23.5731L29.4276 24.4173L29.498 24.3473C29.3517 23.947 29.3248 23.5353 29.4172 23.1123C29.5072 22.687 29.7563 22.2714 30.1643 21.8656C30.5301 21.5018 30.9249 21.2585 31.3485 21.1357C31.7698 21.0106 32.2071 21.0235 32.6603 21.1745C33.1112 21.323 33.5653 21.6271 34.0223 22.0868L37.4365 25.5199L36.6064 26.3454L33.2482 22.9686C32.8261 22.5441 32.387 22.3231 31.9311 22.3055C31.4728 22.2855 31.0513 22.4667 30.6667 22.8492C30.4017 23.1127 30.222 23.4057 30.1276 23.7282C30.0355 24.0483 30.0393 24.378 30.1389 24.7174C30.2385 25.0568 30.4446 25.3836 30.7571 25.6978Z" fill="white"/>
<path d="M43.0173 26.0219C42.5541 26.3464 42.1142 26.5658 41.6976 26.68C41.2828 26.797 40.897 26.8371 40.5402 26.8004C40.1879 26.7646 39.8709 26.6838 39.5891 26.5582L39.9771 25.4868C40.1435 25.5398 40.3443 25.593 40.5795 25.6462C40.8166 25.7022 41.0882 25.7037 41.3943 25.6507C41.7051 25.5986 42.0487 25.4406 42.4252 25.1768C42.929 24.8238 43.2593 24.4106 43.4163 23.9372C43.5732 23.4638 43.4695 22.9671 43.1051 22.4471L42.217 21.1795L42.1357 21.2364C42.145 21.3995 42.1434 21.6106 42.1311 21.8696C42.1196 22.124 42.0388 22.4007 41.8888 22.6996C41.7397 22.9939 41.462 23.2834 41.0557 23.5681C40.5519 23.921 40.0161 24.1188 39.4482 24.1613C38.883 24.2019 38.3246 24.0763 37.7728 23.7845C37.2238 23.4908 36.7215 23.0189 36.2661 22.3688C35.8182 21.7296 35.5406 21.0943 35.4333 20.4628C35.3241 19.8285 35.3788 19.241 35.5975 18.7001C35.8143 18.1565 36.1854 17.7006 36.7109 17.3324C37.1171 17.0478 37.4869 16.8897 37.8201 16.8581C38.1542 16.8219 38.4447 16.8445 38.6915 16.926C38.9392 17.0028 39.1362 17.0707 39.2825 17.1297L39.38 17.0614L38.6854 16.0701L39.6118 15.421L44.1095 21.8403C44.4852 22.3766 44.6689 22.898 44.6604 23.4047C44.6566 23.9122 44.5052 24.3877 44.2063 24.8314C43.912 25.2759 43.5157 25.6727 43.0173 26.0219ZM40.5822 22.6156C40.9668 22.3462 41.2302 22.0304 41.3722 21.6684C41.5143 21.3063 41.5387 20.9117 41.4453 20.4845C41.3519 20.0572 41.1439 19.6134 40.8213 19.1529C40.5062 18.7033 40.1605 18.354 39.7841 18.1049C39.4076 17.8558 39.0183 17.7267 38.6163 17.7177C38.2142 17.7087 37.8181 17.8408 37.4281 18.1141C37.0218 18.3987 36.7554 18.7389 36.6288 19.1345C36.5048 19.5282 36.4966 19.9459 36.6041 20.3875C36.7143 20.8271 36.9174 21.2582 37.2135 21.6808C37.5171 22.1141 37.8534 22.45 38.2222 22.6882C38.5919 22.9219 38.9772 23.0396 39.3782 23.0413C39.78 23.0384 40.1813 22.8965 40.5822 22.6156Z" fill="white"/>
<path d="M49.6199 12.0865L49.9492 13.0225L46.2241 14.3329L45.8949 13.397L49.6199 12.0865ZM46.3747 11.2929L47.4791 10.9044L49.8893 17.7555C49.9991 18.0674 50.1266 18.2855 50.272 18.4097C50.4193 18.5296 50.5741 18.5909 50.7363 18.5934C50.9005 18.5917 51.0637 18.5624 51.2259 18.5053C51.3476 18.4625 51.4452 18.4211 51.5188 18.3812C51.5913 18.3382 51.6493 18.3037 51.6928 18.2779L52.2665 19.191C52.2015 19.2454 52.1069 19.3103 51.9826 19.3855C51.8594 19.4639 51.6949 19.5393 51.489 19.6118C51.177 19.7215 50.8476 19.762 50.5009 19.7332C50.1574 19.7033 49.839 19.5857 49.5459 19.3803C49.2559 19.1738 49.0373 18.8615 48.8903 18.4435L46.3747 11.2929Z" fill="white"/>
<path d="M53.8493 14.4229L54.8597 18.894L53.7178 19.1521L51.4781 9.24221L52.6201 8.98412L53.4425 12.6229L53.5392 12.601C53.6267 12.1778 53.8191 11.8139 54.1164 11.5093C54.4163 11.2008 54.8582 10.9806 55.442 10.8487C55.9485 10.7342 56.415 10.7356 56.8416 10.8528C57.2675 10.9667 57.6323 11.2081 57.936 11.5769C58.2422 11.9416 58.4675 12.4434 58.6118 13.0821L59.6792 17.8048L58.5372 18.0629L57.4874 13.4176C57.354 12.8273 57.0976 12.4055 56.7182 12.1521C56.3414 11.8949 55.8836 11.8271 55.3448 11.9488C54.9706 12.0334 54.653 12.1883 54.392 12.4134C54.1341 12.6378 53.954 12.921 53.8516 13.2628C53.7523 13.604 53.7516 13.9907 53.8493 14.4229Z" fill="white"/>
<path d="M64.0997 18.3583C63.3664 18.3945 62.7259 18.2639 62.1781 17.9665C61.6334 17.6656 61.2029 17.2299 60.8866 16.6595C60.5735 16.0855 60.3977 15.4088 60.3591 14.6292C60.3206 13.8497 60.4287 13.1556 60.6834 12.547C60.9412 11.9349 61.3179 11.4494 61.8134 11.0905C62.312 10.7281 62.9049 10.5299 63.5919 10.4959C63.9883 10.4763 64.383 10.5231 64.776 10.6361C65.169 10.7491 65.5314 10.9464 65.8632 11.228C66.1948 11.5064 66.4668 11.8836 66.6791 12.3599C66.8914 12.8362 67.0151 13.4294 67.0502 14.1396L67.0746 14.6351L61.2082 14.925L61.1582 13.9142L65.8355 13.6831C65.8143 13.2536 65.7095 12.8747 65.5211 12.5463C65.336 12.2177 65.0817 11.9637 64.7582 11.7843C64.4381 11.6048 64.0666 11.5254 63.6438 11.5463C63.1781 11.5694 62.7808 11.7049 62.452 11.9529C62.1264 12.1975 61.8817 12.5076 61.7182 12.8832C61.5546 13.2589 61.4832 13.6565 61.504 14.076L61.5373 14.7498C61.5657 15.3246 61.6889 15.8069 61.9068 16.1968C62.1279 16.5832 62.422 16.8716 62.789 17.0621C63.1558 17.2493 63.5755 17.3312 64.0478 17.3078C64.355 17.2927 64.6304 17.236 64.8739 17.1379C65.1205 17.0363 65.3303 16.8935 65.5033 16.7094C65.6762 16.5221 65.8056 16.2938 65.8917 16.0246L67.037 16.2859C66.9371 16.675 66.7539 17.0218 66.4875 17.3263C66.2209 17.6276 65.8852 17.8693 65.4803 18.0516C65.0752 18.2306 64.615 18.3328 64.0997 18.3583Z" fill="white"/>
<path d="M72.091 19.6027L74.276 9.68063L80.2254 10.9908L79.9906 12.0566L75.2428 11.0111L74.5045 14.3636L78.8066 15.311L78.5719 16.3769L74.2698 15.4295L73.2925 19.8673L72.091 19.6027Z" fill="white"/>
<path d="M84.3599 20.8197L86.0664 16.6511L87.1499 17.0946L84.263 24.1464L83.1795 23.7029L83.6682 22.5092L83.5948 22.4791C83.2829 22.7696 82.9011 22.9689 82.4494 23.077C81.999 23.1821 81.5076 23.1256 80.975 22.9076C80.5343 22.7272 80.182 22.4704 79.9181 22.1372C79.6555 21.801 79.5064 21.3969 79.4709 20.9249C79.4367 20.4499 79.5424 19.9125 79.7879 19.3126L81.6223 14.8317L82.7058 15.2753L80.9015 19.6827C80.691 20.1969 80.6669 20.6659 80.8294 21.0897C80.9948 21.5148 81.3025 21.8195 81.7524 22.0037C82.0218 22.1139 82.3239 22.1572 82.6588 22.1335C82.9968 22.111 83.3189 21.9963 83.6252 21.7894C83.9345 21.5837 84.1794 21.2605 84.3599 20.8197Z" fill="white"/>
<path d="M91.837 20.5909L91.3108 21.432L87.963 19.338L88.4891 18.4968L91.837 20.5909ZM90.433 17.5594L91.4256 18.1802L87.5742 24.3376C87.3988 24.618 87.3079 24.8537 87.3015 25.0447C87.2997 25.2347 87.3484 25.3939 87.4476 25.5223C87.5513 25.6496 87.676 25.7588 87.8218 25.85C87.9312 25.9184 88.0244 25.9689 88.1015 26.0015C88.1804 26.0314 88.2435 26.0552 88.2908 26.0731L87.935 27.091C87.8519 27.0742 87.7422 27.0407 87.6058 26.9905C87.4677 26.9431 87.3062 26.8615 87.1211 26.7458C86.8407 26.5704 86.6036 26.3382 86.4099 26.0493C86.2189 25.7621 86.1123 25.4399 86.09 25.0827C86.0705 24.7272 86.1782 24.3616 86.4132 23.9859L90.433 17.5594Z" fill="white"/>
<path d="M94.5665 28.7694L97.3811 25.2527L98.2952 25.9843L93.5338 31.9333L92.6197 31.2017L93.4257 30.1947L93.3637 30.1451C92.9825 30.3356 92.56 30.4189 92.0962 30.3951C91.6344 30.3686 91.1789 30.1756 90.7296 29.816C90.3578 29.5184 90.0924 29.1726 89.9334 28.7784C89.7765 28.3817 89.7477 27.952 89.847 27.4892C89.9483 27.0239 90.2015 26.5382 90.6065 26.0321L93.632 22.252L94.5461 22.9836L91.5702 26.7017C91.223 27.1355 91.0674 27.5786 91.1035 28.0311C91.1421 28.4856 91.3512 28.8648 91.7308 29.1686C91.958 29.3504 92.2356 29.4773 92.5635 29.5491C92.8941 29.6231 93.2355 29.604 93.5878 29.492C93.9426 29.3821 94.2689 29.1412 94.5665 28.7694Z" fill="white"/>
<path d="M93.904 33.2383L99.6052 28.1828L100.356 29.0291L99.4945 29.7927L99.5472 29.8521C99.9214 29.7058 100.317 29.6909 100.734 29.8073C101.151 29.9237 101.511 30.1527 101.814 30.4942C101.871 30.5585 101.941 30.64 102.024 30.7387C102.107 30.8374 102.168 30.9137 102.207 30.9676L101.316 31.7575C101.297 31.7212 101.248 31.6433 101.169 31.5237C101.094 31.4044 101.005 31.2867 100.902 31.1704C100.656 30.8932 100.378 30.6973 100.069 30.5827C99.7644 30.4684 99.4546 30.438 99.1398 30.4918C98.8296 30.5458 98.5459 30.6869 98.2885 30.9151L94.6807 34.1143L93.904 33.2383Z" fill="white"/>
<path d="M98.5477 39.913C98.1288 39.3101 97.9004 38.6976 97.8627 38.0754C97.8296 37.454 97.9713 36.8581 98.2879 36.2878C98.609 35.7183 99.09 35.2109 99.731 34.7655C100.372 34.3201 101.018 34.0443 101.669 33.9382C102.325 33.8328 102.936 33.8954 103.503 34.1257C104.074 34.3569 104.556 34.7549 104.949 35.3198C105.175 35.6457 105.345 36.0053 105.457 36.3985C105.569 36.7918 105.594 37.2037 105.53 37.6343C105.47 38.063 105.294 38.4934 105.002 38.9257C104.71 39.3579 104.273 39.7769 103.689 40.1827L103.281 40.4657L99.9295 35.6424L100.761 35.0649L103.433 38.9105C103.786 38.6652 104.052 38.3756 104.231 38.0419C104.412 37.7109 104.492 37.3607 104.473 36.9914C104.456 36.6247 104.327 36.2676 104.085 35.92C103.819 35.537 103.494 35.2717 103.109 35.1241C102.73 34.9773 102.337 34.934 101.932 34.9941C101.526 35.0542 101.151 35.2041 100.806 35.4438L100.252 35.8288C99.7798 36.1572 99.4359 36.517 99.2205 36.9083C99.0097 37.3005 98.9207 37.7026 98.9534 38.1149C98.9888 38.5252 99.1415 38.9245 99.4114 39.3129C99.5869 39.5655 99.7807 39.7691 99.9929 39.9237C100.21 40.0791 100.442 40.1815 100.69 40.2309C100.94 40.2783 101.202 40.2673 101.476 40.1978L101.861 41.3078C101.478 41.429 101.087 41.4572 100.687 41.3924C100.291 41.3257 99.9077 41.1689 99.5388 40.9219C99.1725 40.673 98.8421 40.3367 98.5477 39.913Z" fill="white"/>
<path d="M102.251 44.469L101.732 44.6236C101.366 44.7321 100.964 44.8248 100.526 44.9017C100.089 44.9815 99.6719 45.0464 99.2755 45.0964C98.8791 45.1463 98.5622 45.1828 98.3249 45.206L97.9473 44.3968C98.1573 44.3462 98.4343 44.279 98.7784 44.1951C99.1224 44.1113 99.504 44.0099 99.9229 43.891C100.34 43.7766 100.761 43.646 101.185 43.4991L101.714 43.3182L102.251 44.469Z" fill="white"/>
<path d="M109.778 58.2675C108.739 58.5286 107.794 58.5665 106.943 58.3814C106.091 58.1963 105.378 57.8281 104.803 57.2769C104.228 56.7257 103.835 56.0299 103.624 55.1895C103.413 54.3491 103.431 53.5502 103.677 52.7927C103.923 52.0353 104.378 51.3738 105.04 50.8084C105.703 50.2429 106.554 49.8296 107.593 49.5686C108.632 49.3075 109.578 49.2695 110.429 49.4547C111.28 49.6398 111.993 50.008 112.568 50.5592C113.143 51.1104 113.536 51.8062 113.747 52.6465C113.958 53.4869 113.941 54.2859 113.695 55.0433C113.449 55.8008 112.994 56.4623 112.331 57.0277C111.669 57.5932 110.818 58.0064 109.778 58.2675ZM109.488 57.1128C110.342 56.8984 111.026 56.5748 111.541 56.1419C112.057 55.7122 112.405 55.2173 112.585 54.6572C112.766 54.1003 112.781 53.5236 112.631 52.927C112.481 52.3303 112.195 51.8277 111.772 51.4191C111.349 51.0137 110.809 50.742 110.15 50.604C109.492 50.4692 108.737 50.509 107.883 50.7233C107.03 50.9376 106.345 51.2597 105.829 51.6894C105.314 52.1223 104.966 52.6172 104.786 53.1741C104.606 53.7342 104.591 54.3125 104.741 54.9091C104.89 55.5057 105.177 56.0067 105.599 56.4121C106.022 56.8207 106.563 57.0924 107.221 57.2272C107.879 57.3653 108.635 57.3271 109.488 57.1128Z" fill="white"/>
<path d="M108.356 61.0112L103.774 61.1513L103.739 59.9811L111.355 59.7481L111.389 60.8787L110.199 60.9151L110.202 61.0142C110.595 61.1809 110.914 61.4425 111.159 61.7989C111.409 62.1552 111.542 62.621 111.56 63.1962C111.575 63.7119 111.483 64.1663 111.284 64.5596C111.087 64.9527 110.779 65.2632 110.359 65.4912C109.943 65.719 109.41 65.8428 108.763 65.8626L103.923 66.0107L103.887 64.8405L108.647 64.6948C109.246 64.6765 109.707 64.5069 110.031 64.186C110.359 63.8649 110.515 63.4333 110.498 62.8912C110.487 62.5176 110.395 62.1862 110.224 61.897C110.054 61.6111 109.81 61.3885 109.494 61.2295C109.178 61.0704 108.799 60.9976 108.356 61.0112Z" fill="white"/>
<path d="M102.553 70.2642C102.656 69.5373 102.905 68.933 103.301 68.4513C103.699 67.9733 104.209 67.633 104.829 67.4303C105.451 67.2314 106.149 67.1867 106.922 67.2963C107.695 67.4059 108.356 67.6433 108.905 68.0084C109.458 68.3774 109.863 68.8391 110.122 69.3935C110.383 69.9517 110.466 70.5713 110.369 71.2524C110.314 71.6453 110.193 72.0241 110.008 72.3886C109.823 72.7531 109.56 73.0717 109.221 73.3442C108.885 73.6173 108.463 73.813 107.955 73.9314C107.447 74.0497 106.842 74.059 106.137 73.9592L105.646 73.8895L106.471 68.0741L107.473 68.2162L106.815 72.8528C107.241 72.9132 107.633 72.8819 107.991 72.759C108.349 72.6394 108.646 72.4377 108.884 72.154C109.121 71.8736 109.269 71.5239 109.328 71.1047C109.394 70.643 109.336 70.2273 109.154 69.8575C108.976 69.4915 108.717 69.1927 108.379 68.961C108.042 68.7294 107.665 68.5841 107.249 68.5251L106.581 68.4304C106.011 68.3496 105.514 68.3793 105.09 68.5196C104.669 68.6636 104.33 68.8978 104.074 69.2222C103.82 69.5471 103.661 69.9436 103.594 70.4119C103.551 70.7164 103.555 70.9975 103.605 71.2551C103.658 71.5165 103.759 71.7496 103.907 71.9543C104.058 72.1595 104.257 72.3297 104.506 72.4651L104.032 73.5404C103.669 73.3687 103.363 73.1232 103.115 72.804C102.869 72.4853 102.695 72.1099 102.593 71.6778C102.494 71.2462 102.48 70.775 102.553 70.2642Z" fill="white"/>
<path d="M99.8198 77.8782L109.15 81.9001L106.738 87.4944L105.736 87.0623L107.66 82.5979L104.508 81.2389L102.764 85.2842L101.762 84.8522L103.506 80.8068L99.3327 79.008L99.8198 77.8782Z" fill="white"/>
<path d="M94.9486 85.7483C95.2127 85.3441 95.5286 85.027 95.8961 84.797C96.2665 84.5689 96.6603 84.4529 97.0776 84.4491C97.4977 84.4471 97.9154 84.5818 98.3307 84.8531C98.6961 85.0919 98.9453 85.3575 99.0783 85.6498C99.214 85.9439 99.2682 86.254 99.2409 86.5798C99.2136 86.9057 99.1368 87.2348 99.0106 87.5671C98.8852 87.904 98.7451 88.2332 98.5903 88.5548C98.3869 88.9749 98.2189 89.3136 98.0864 89.5707C97.9549 89.8325 97.8848 90.0395 97.8761 90.1918C97.8656 90.347 97.9393 90.4761 98.0971 90.5792L98.1303 90.6009C98.54 90.8687 98.9317 90.9646 99.3052 90.8887C99.677 90.8156 100.01 90.5534 100.305 90.1021C100.611 89.6343 100.748 89.2005 100.717 88.8008C100.686 88.4012 100.589 88.0714 100.427 87.8114L101.367 87.0983C101.646 87.5177 101.803 87.9364 101.838 88.3544C101.874 88.7769 101.828 89.1809 101.698 89.5665C101.57 89.9566 101.401 90.3122 101.191 90.6334C101.057 90.8382 100.878 91.0573 100.655 91.2905C100.432 91.5283 100.165 91.7229 99.8523 91.8744C99.5381 92.0286 99.1759 92.0902 98.7656 92.0591C98.3553 92.028 97.8968 91.8469 97.3902 91.5158L93.1876 88.7695L93.828 87.7894L94.6918 88.3539L94.7244 88.3041C94.6294 88.1472 94.5536 87.9396 94.4971 87.6815C94.4406 87.4233 94.4412 87.1293 94.4987 86.7995C94.5562 86.4697 94.7062 86.1192 94.9486 85.7483ZM95.7313 86.4731C95.478 86.8607 95.3406 87.2371 95.3192 87.6024C95.296 87.9704 95.3605 88.301 95.5127 88.594C95.6631 88.8899 95.8712 89.1246 96.137 89.2983L97.034 89.8845C97.0113 89.8104 97.0253 89.6892 97.076 89.5208C97.1277 89.3571 97.198 89.1739 97.287 88.9713C97.3769 88.7732 97.4669 88.5812 97.5569 88.395C97.6479 88.2135 97.7208 88.0656 97.7757 87.9514C97.909 87.6749 98.0106 87.4016 98.0805 87.1312C98.1515 86.8655 98.1579 86.6168 98.0998 86.3853C98.0427 86.1583 97.8896 85.9634 97.6404 85.8006C97.2999 85.5781 96.9601 85.5358 96.621 85.6738C96.283 85.8163 95.9864 86.0827 95.7313 86.4731Z" fill="white"/>
<path d="M91.9164 89.335L97.5179 94.5007L96.7511 95.3322L95.9051 94.552L95.8513 94.6103C96.0343 94.968 96.0888 95.3602 96.0147 95.7868C95.9407 96.2134 95.749 96.5945 95.4396 96.93C95.3813 96.9932 95.3072 97.0711 95.2174 97.1637C95.1275 97.2563 95.0577 97.3246 95.008 97.3688L94.1328 96.5616C94.167 96.5392 94.2396 96.4824 94.3506 96.3913C94.4617 96.3049 94.57 96.2045 94.6754 96.0903C94.9265 95.818 95.0936 95.5222 95.1766 95.2028C95.2598 94.8882 95.259 94.5769 95.1739 94.2691C95.0891 93.9659 94.9203 93.6978 94.6674 93.4646L91.1227 90.1956L91.9164 89.335Z" fill="white"/>
<path d="M88.2749 92.6706L93.2285 98.4606L92.3691 99.1959L91.5951 98.2912L91.5197 98.3557C91.6635 98.768 91.6741 99.1746 91.5514 99.5756C91.4308 99.979 91.1821 100.342 90.8051 100.665C90.4232 100.991 90.0311 101.177 89.6289 101.22C89.2264 101.269 88.8213 101.2 88.4136 101.013L88.3533 101.065C88.4609 101.491 88.4416 101.918 88.2956 102.348C88.1517 102.78 87.8725 103.174 87.4578 103.528C86.9401 103.971 86.378 104.171 85.7715 104.129C85.1671 104.089 84.5735 103.728 83.9909 103.047L80.6756 99.1722L81.5652 98.4111L84.8805 102.286C85.246 102.713 85.6241 102.919 86.0147 102.902C86.4054 102.886 86.759 102.742 87.0757 102.471C87.4828 102.123 87.6928 101.73 87.7058 101.292C87.7209 100.857 87.5683 100.452 87.2479 100.078L84.0229 96.3084L84.9276 95.5344L88.3203 99.5C88.6019 99.8292 88.9356 100.003 89.3212 100.021C89.7089 100.042 90.0712 99.9084 90.4079 99.6203C90.6391 99.4225 90.8026 99.176 90.8983 98.8809C90.9914 98.5879 91.0061 98.2794 90.9422 97.9554C90.8779 97.6361 90.7243 97.3344 90.4813 97.0505L87.3853 93.4317L88.2749 92.6706Z" fill="white"/>
<path d="M73.8583 100.223C74.3085 100.049 74.75 99.975 75.1827 100.002C75.6166 100.033 76.0042 100.168 76.3455 100.408C76.6881 100.651 76.949 101.004 77.1283 101.467C77.2861 101.874 77.3338 102.235 77.2714 102.55C77.2103 102.868 77.0737 103.152 76.8616 103.401C76.6494 103.649 76.3952 103.872 76.0989 104.069C75.8008 104.269 75.4951 104.455 75.1818 104.626C74.7716 104.849 74.4378 105.026 74.1802 105.158C73.9208 105.294 73.7432 105.421 73.6473 105.54C73.5484 105.66 73.533 105.808 73.6011 105.984L73.6155 106.021C73.7924 106.477 74.0547 106.783 74.4025 106.939C74.7472 107.097 75.1709 107.078 75.6735 106.883C76.1946 106.681 76.559 106.409 76.7666 106.066C76.9742 105.723 77.0879 105.398 77.1078 105.093L78.2873 105.061C78.2696 105.565 78.1532 105.996 77.9381 106.356C77.721 106.721 77.4476 107.022 77.1177 107.26C76.7859 107.502 76.4411 107.692 76.0834 107.831C75.8552 107.919 75.5824 107.993 75.2648 108.052C74.9454 108.116 74.6146 108.118 74.2725 108.059C73.9274 108.001 73.5971 107.84 73.2818 107.576C72.9665 107.312 72.6995 106.897 72.4808 106.333L70.6665 101.652L71.7581 101.229L72.131 102.191L72.1865 102.169C72.2008 101.986 72.2602 101.774 72.3647 101.531C72.4693 101.288 72.641 101.05 72.88 100.815C73.119 100.581 73.4451 100.383 73.8583 100.223ZM74.0719 101.268C73.6401 101.436 73.3091 101.661 73.0788 101.946C72.8455 102.231 72.7052 102.538 72.6581 102.864C72.6079 103.192 72.6402 103.504 72.7549 103.8L73.1422 104.8C73.1669 104.726 73.2489 104.636 73.3883 104.529C73.5257 104.426 73.6896 104.318 73.88 104.205C74.0685 104.096 74.2536 103.993 74.4352 103.894C74.6149 103.8 74.7604 103.722 74.8716 103.661C75.141 103.514 75.3829 103.351 75.5973 103.172C75.8098 102.998 75.96 102.799 76.0477 102.577C76.1336 102.36 76.1227 102.112 76.0152 101.835C75.8681 101.455 75.6167 101.223 75.2608 101.137C74.903 101.056 74.5067 101.1 74.0719 101.268Z" fill="white"/>
<path d="M67.5995 109.504L67.3989 108.532L71.2661 107.734L71.4667 108.706L67.5995 109.504ZM70.7088 110.726L69.5622 110.963L68.0935 103.85C68.0266 103.526 67.9295 103.293 67.8021 103.151C67.6721 103.012 67.527 102.931 67.3666 102.906C67.2037 102.886 67.038 102.893 66.8696 102.928C66.7433 102.954 66.641 102.982 66.5627 103.012C66.4851 103.044 66.423 103.071 66.3764 103.091L65.9305 102.109C66.0022 102.063 66.1047 102.012 66.2379 101.954C66.3705 101.893 66.5437 101.84 66.7575 101.796C67.0814 101.729 67.4131 101.733 67.7528 101.808C68.0893 101.884 68.389 102.043 68.6519 102.286C68.9116 102.53 69.0862 102.869 69.1758 103.303L70.7088 110.726Z" fill="white"/>
<path d="M58.2588 101.814C58.7416 101.817 59.1791 101.912 59.5712 102.097C59.9633 102.285 60.2738 102.554 60.5026 102.903C60.7314 103.255 60.8438 103.679 60.84 104.175C60.8366 104.612 60.7479 104.965 60.5738 105.235C60.3997 105.508 60.1682 105.721 59.8792 105.874C59.5903 106.028 59.2719 106.141 58.9241 106.214C58.5729 106.291 58.2202 106.351 57.866 106.395C57.4025 106.45 57.0268 106.492 56.7389 106.52C56.4476 106.551 56.2355 106.603 56.1026 106.679C55.9665 106.754 55.8976 106.885 55.8962 107.074L55.8959 107.113C55.8921 107.603 56.0231 107.984 56.2888 108.258C56.5513 108.531 56.9521 108.67 57.4911 108.674C58.05 108.678 58.4892 108.559 58.8085 108.317C59.1279 108.075 59.3532 107.815 59.4843 107.538L60.5924 107.944C60.3904 108.405 60.123 108.764 59.7903 109.019C59.4543 109.278 59.0891 109.457 58.6947 109.556C58.2971 109.659 57.9064 109.709 57.5228 109.706C57.2781 109.704 56.9972 109.672 56.6802 109.61C56.3598 109.551 56.0515 109.431 55.7553 109.251C55.4557 109.07 55.2081 108.798 55.0125 108.436C54.8168 108.074 54.7214 107.591 54.7261 106.985L54.7651 101.965L55.9358 101.974L55.9278 103.006L55.9873 103.006C56.0679 102.842 56.2016 102.666 56.3883 102.479C56.5749 102.292 56.8226 102.133 57.1311 102.003C57.4397 101.873 57.8156 101.81 58.2588 101.814ZM58.072 102.864C57.609 102.86 57.2181 102.948 56.8992 103.128C56.577 103.307 56.3337 103.54 56.1694 103.826C56.0019 104.113 55.9168 104.415 55.9144 104.732L55.906 105.804C55.9561 105.745 56.0657 105.691 56.2347 105.643C56.4004 105.598 56.5926 105.558 56.8111 105.523C57.0263 105.492 57.2366 105.464 57.4418 105.439C57.6437 105.417 57.8076 105.399 57.9334 105.383C58.238 105.346 58.5229 105.283 58.7881 105.196C59.0501 105.112 59.2627 104.983 59.4261 104.809C59.5862 104.638 59.6674 104.404 59.6697 104.107C59.6729 103.7 59.5248 103.391 59.2255 103.18C58.9228 102.973 58.5383 102.868 58.072 102.864Z" fill="white"/>
<path d="M47.7041 109.074L47.4138 110.126L40.0686 108.099L40.3589 107.047L43.4386 107.897L45.8511 99.155L47.0371 99.4823L44.6245 108.224L47.7041 109.074Z" fill="white"/>
<path d="M42.5493 97.2934L39.2009 104.138L38.1493 103.624L41.4976 96.7789L42.5493 97.2934ZM38.1081 105.017C38.3131 105.118 38.4557 105.274 38.536 105.486C38.6132 105.697 38.6039 105.9 38.508 106.097C38.4121 106.293 38.2572 106.425 38.0433 106.493C37.8265 106.56 37.6155 106.544 37.4106 106.443C37.2056 106.343 37.0644 106.187 36.9872 105.977C36.9069 105.764 36.9148 105.56 37.0107 105.364C37.1066 105.168 37.263 105.036 37.4798 104.97C37.6937 104.901 37.9031 104.917 38.1081 105.017Z" fill="white"/>
<path d="M39.4932 95.5311L35.5799 102.069L34.6094 101.488L35.2208 100.467L35.1357 100.416C34.7905 100.683 34.4084 100.823 33.9893 100.834C33.5684 100.848 33.1452 100.728 32.7195 100.473C32.2882 100.215 31.9878 99.902 31.8184 99.5347C31.6444 99.1685 31.581 98.7624 31.6282 98.3166L31.5601 98.2758C31.1905 98.5133 30.7789 98.6311 30.3252 98.6294C29.8697 98.6304 29.4079 98.4908 28.9396 98.2106C28.3551 97.8607 27.9864 97.3915 27.8338 96.8029C27.6795 96.2172 27.8324 95.5398 28.2927 94.7707L30.9118 90.3949L31.9164 90.9962L29.2973 95.372C29.0086 95.8544 28.9341 96.2782 29.0741 96.6433C29.214 97.0084 29.4627 97.298 29.8203 97.512C30.28 97.7871 30.7194 97.8612 31.1384 97.7343C31.5557 97.6102 31.8909 97.3368 32.144 96.9139L34.6917 92.6573L35.7133 93.2687L33.0331 97.7467C32.8106 98.1185 32.752 98.49 32.8573 98.8614C32.9609 99.2357 33.2029 99.5366 33.5832 99.7642C33.8442 99.9204 34.1299 99.997 34.4401 99.9938C34.7475 99.9889 35.0447 99.9047 35.3315 99.741C35.6138 99.5785 35.8509 99.3369 36.0428 99.0162L38.4886 94.9299L39.4932 95.5311Z" fill="white"/>
<path d="M29.5033 86.7527C30.0243 87.27 30.3595 87.8313 30.509 88.4364C30.6538 89.0416 30.622 89.6533 30.4137 90.2714C30.2007 90.8895 29.8193 91.4755 29.2693 92.0293C28.7194 92.5832 28.1337 92.9711 27.5125 93.1931C26.8865 93.4151 26.274 93.4641 25.6749 93.3399C25.0711 93.2157 24.5251 92.9113 24.037 92.4266C23.7554 92.147 23.5239 91.8239 23.3425 91.4574C23.1612 91.0909 23.0627 90.6901 23.0471 90.2552C23.0292 89.8226 23.1247 89.3675 23.3335 88.8897C23.5423 88.4119 23.8972 87.9207 24.3982 87.4161L24.7477 87.0641L28.9156 91.2027L28.2025 91.9208L24.8795 88.6211C24.5766 88.9262 24.3673 89.259 24.2516 89.6196C24.1336 89.9778 24.1173 90.3368 24.2028 90.6967C24.2859 91.0542 24.4776 91.3821 24.778 91.6803C25.1089 92.0089 25.4768 92.2111 25.8816 92.2868C26.2818 92.3626 26.6757 92.3343 27.0635 92.202C27.4512 92.0697 27.7931 91.8545 28.089 91.5564L28.5644 91.0777C28.9699 90.6693 29.2432 90.2533 29.3843 89.8295C29.5208 89.4057 29.5358 88.9941 29.4291 88.5946C29.3201 88.1974 29.0979 87.8322 28.7623 87.499C28.544 87.2823 28.3166 87.117 28.08 87.0033C27.8387 86.8895 27.5918 86.8308 27.3392 86.827C27.0843 86.8255 26.8284 86.8837 26.5716 87.0016L25.9927 85.9793C26.3475 85.791 26.7272 85.6926 27.1317 85.6841C27.534 85.678 27.9388 85.7631 28.3464 85.9394C28.7516 86.1181 29.1372 86.3892 29.5033 86.7527Z" fill="white"/>
<path d="M19 64L21.0206 70.2188H27.5595L22.2694 74.0623L24.2901 80.2812L19 76.4377L13.7099 80.2812L15.7306 74.0623L10.4405 70.2188H16.9794L19 64Z" fill="#74B700"/>
</g>
<defs>
<clipPath id="clip0_51_2913">
<rect width="120" height="120" rx="60" fill="white"/>
</clipPath>
</defs>
</svg>
