<svg width="38" height="33" viewBox="0 0 38 33" fill="none" xmlns="http://www.w3.org/2000/svg">
<path d="M13.466 30.8624V31.8304C13.4652 31.8368 13.4624 31.8446 13.4624 31.8517C13.4624 31.8601 13.4652 31.8679 13.466 31.875C13.4758 32.1144 13.6714 32.305 13.9123 32.31C13.9157 32.31 13.9179 32.3114 13.9213 32.3114C13.9249 32.3114 13.9291 32.31 13.9327 32.31H25.287C25.2898 32.31 25.2934 32.3114 25.297 32.3114C25.2998 32.3114 25.3033 32.31 25.3068 32.31C25.5547 32.305 25.7523 32.1038 25.7545 31.8553L25.7559 31.8517L25.7545 31.8489V30.7536C32.1463 28.6578 36.9345 23.4779 37.9881 17.1644C37.9901 17.1509 37.9923 17.1383 37.9937 17.1263C37.9979 17.1044 38 17.0846 38 17.0627C38 16.8092 37.7959 16.6038 37.541 16.6038H1.35321C1.0976 16.6038 0.892822 16.8092 0.892822 17.0627L0.916127 17.2696C2.02261 23.643 6.94209 28.8521 13.466 30.8624Z" fill="white"/>
<path d="M25.7444 1.15977C25.5955 1.37223 22.0988 6.40549 25.8228 10.4755C27.5302 12.344 27.382 13.992 26.8946 15.1056H29.2828C29.7664 13.4617 29.5674 11.4005 27.6277 9.28148C24.8843 6.28258 27.663 2.22805 27.7046 2.16589C28.0323 1.70338 27.8571 1.10746 27.317 0.82926C26.7753 0.552469 26.0735 0.700074 25.7444 1.15977Z" fill="white"/>
<path d="M19.6939 15.1052H22.0835C22.5664 13.4615 22.3659 11.4002 20.4269 9.2812C17.6822 6.28165 20.4587 2.22995 20.5024 2.16356C20.8287 1.7031 20.6556 1.10782 20.1141 0.828982C19.5746 0.55283 18.8713 0.699794 18.5436 1.15936C18.3932 1.37131 14.8944 6.40521 18.6214 10.4752C20.3287 12.3443 20.1805 13.993 19.6939 15.1052Z" fill="white"/>
<path d="M11.3437 1.1596C11.1926 1.37218 7.69588 6.40532 11.4207 10.4754C13.1287 12.3444 12.9811 13.9933 12.4947 15.1054H14.8835C15.3665 13.4622 15.1665 11.4011 13.2262 9.28131C10.4816 6.2824 13.2601 2.22788 13.3038 2.16367C13.6287 1.70333 13.4557 1.10728 12.9141 0.829086C12.3739 0.550888 11.6714 0.699132 11.3437 1.1596Z" fill="white"/>
</svg>
