<svg width="152" height="22" viewBox="0 0 152 22" fill="none" xmlns="http://www.w3.org/2000/svg">
<path d="M36.2717 19.3013C36.2459 19.3386 36.22 19.3884 36.1942 19.4257C36.1683 19.463 36.1425 19.4878 36.1166 19.5127C35.897 19.7614 35.5868 19.948 35.2379 20.0226C35.225 20.0226 35.225 20.0226 35.2121 20.0226C35.1604 20.0351 35.1087 20.035 35.057 20.0475C34.9924 20.0475 34.9407 20.0599 34.8761 20.0599C34.8761 20.0599 34.8761 20.0599 34.8632 20.0599C34.6823 20.0599 34.5014 20.0226 34.3334 19.9729C34.1654 19.9107 34.0104 19.8236 33.8682 19.7117C33.8295 19.6868 33.7907 19.6495 33.7519 19.6122C33.4547 19.3262 33.2867 18.9282 33.2867 18.5178V3.50707C33.2867 2.64896 34.0104 1.96495 34.8891 1.96495C35.7807 1.96495 36.4914 2.66139 36.4914 3.50707V15.1724L33.9328 12.71V15.4087L36.0262 17.4234C36.3234 17.7094 36.4914 18.095 36.4914 18.5178C36.4914 18.5676 36.4914 18.6173 36.4784 18.667C36.4784 18.7168 36.4655 18.779 36.4526 18.8163C36.4268 18.9531 36.3751 19.065 36.3234 19.1894C36.3105 19.2267 36.2975 19.264 36.2717 19.3013ZM20.843 7.18824L18.0906 4.53929C17.8063 4.26569 17.6384 3.8926 17.6254 3.49463C17.6384 2.66139 18.3491 1.97739 19.2277 1.97739C20.1064 1.97739 20.8301 2.67383 20.8301 3.5195V6.2182L22.8071 8.12097V4.72583L30.5344 12.1628V9.4641L21.7475 1.00735C21.7217 0.982477 21.6958 0.97004 21.67 0.945167C21.6312 0.907858 21.5795 0.858112 21.5278 0.820803C21.4891 0.783494 21.4503 0.758621 21.3986 0.721312C21.3857 0.708876 21.3599 0.696439 21.3469 0.684003C21.334 0.671566 21.3082 0.65913 21.2952 0.646694C21.2306 0.596948 21.1531 0.559639 21.0885 0.509893C21.0627 0.497457 21.0497 0.48502 21.0239 0.472584C20.9464 0.435275 20.8817 0.385529 20.8042 0.34822C20.7913 0.335783 20.7784 0.335783 20.7654 0.323347C20.7267 0.310911 20.675 0.286038 20.6233 0.261165C20.5845 0.248729 20.5587 0.236292 20.5199 0.223856L20.4295 0.186547C20.3907 0.17411 20.3519 0.161674 20.3132 0.149237C20.2744 0.136801 20.2357 0.124365 20.1969 0.111928C20.1064 0.0870553 20.0031 0.0621825 19.9126 0.0373097C19.8997 0.0373097 19.8738 0.0248733 19.8609 0.0248733C19.8351 0.0248733 19.8092 0.0124369 19.7963 0.0124369C19.7705 4.9267e-07 19.7446 4.9267e-07 19.7188 4.9267e-07C19.6671 -0.0124359 19.6154 -0.0124359 19.5637 -0.0124359C19.5508 -0.0124359 19.5379 -0.0124359 19.525 -0.0124359C19.4991 -0.0124359 19.4733 -0.0124359 19.4603 -0.0124359C19.4603 4.9267e-07 19.3828 4.9267e-07 19.3182 4.9267e-07C19.2924 4.9267e-07 19.2665 4.9267e-07 19.2407 4.9267e-07C19.1502 4.9267e-07 19.0727 4.9267e-07 18.9822 0.0124369C18.9176 0.0124369 18.8659 0.0248733 18.8013 0.0248733C18.7626 0.0248733 18.7367 0.0248733 18.698 0.0373097C18.6592 0.0373097 18.6204 0.0497461 18.5946 0.0497461C18.5429 0.0621825 18.5041 0.0621825 18.4524 0.0746189C18.4137 0.0870553 18.3878 0.0870553 18.3491 0.0994917C18.3361 0.0994917 18.3232 0.111928 18.3103 0.111928C18.2457 0.124365 18.1811 0.149237 18.1165 0.17411C18.1035 0.17411 18.0906 0.186547 18.0777 0.186547C17.8451 0.261165 17.6125 0.360656 17.4058 0.48502L17.3928 0.497457C17.3282 0.534766 17.2507 0.584512 17.1861 0.634257C17.1861 0.634257 17.1732 0.634257 17.1732 0.646694C17.0181 0.758621 16.863 0.870549 16.7209 1.00735C16.6821 1.04466 16.6563 1.06953 16.6304 1.10684C16.6175 1.11928 16.5917 1.14415 16.5788 1.15659C16.4108 1.3307 16.2686 1.52968 16.1523 1.72866C16.1136 1.79084 16.0748 1.86546 16.036 1.92764C16.0231 1.94008 16.0231 1.95252 16.0102 1.96495C15.9197 2.16394 15.8422 2.36292 15.7776 2.58677C15.7647 2.62408 15.7647 2.64895 15.7518 2.68626C15.7388 2.73601 15.7259 2.79819 15.7259 2.84794C15.7259 2.87281 15.713 2.89768 15.713 2.91012C15.713 2.94743 15.7001 2.9723 15.7001 3.00961C15.6872 3.14641 15.6742 3.29565 15.6742 3.43245V3.50707V9.29V10.1979L6.12497 1.03222C6.03451 0.945167 5.95698 0.870549 5.86653 0.808367C5.82776 0.771058 5.77608 0.746185 5.73731 0.708876L5.72439 0.696439C5.54348 0.572075 5.34966 0.447711 5.15583 0.360656C5.10414 0.335783 5.05245 0.310911 5.00076 0.298474L4.8457 0.236292C4.65187 0.17411 4.48389 0.124365 4.31591 0.0994917C4.27714 0.0870553 4.23837 0.0870553 4.19961 0.0746189C4.17376 0.0621825 4.14792 0.0621825 4.12208 0.0621825C4.07039 0.0497461 4.00578 0.0497461 3.95409 0.0373097C3.92825 0.0373097 3.88948 0.0248733 3.87656 0.0373097C3.69566 0.0248733 3.46306 0.0248733 3.26923 0.0373097C3.1917 0.0373097 3.11417 0.0497461 3.04956 0.0621825C2.94619 0.0746189 2.82989 0.0994917 2.70067 0.124365C2.54561 0.161674 2.39055 0.211419 2.22256 0.273601C2.05458 0.335783 1.89952 0.422838 1.75737 0.509893C1.74445 0.52233 1.73153 0.52233 1.71861 0.534766C1.654 0.572075 1.58939 0.621821 1.52478 0.65913C1.52478 0.65913 1.51186 0.65913 1.51186 0.671566C1.3568 0.783494 1.20173 0.895422 1.05959 1.03222C0.516875 1.55455 0.167984 2.22612 0.0516875 2.94743C0.0387656 3.02205 0.0258437 3.08423 0.0258437 3.15885C0 3.25834 0 3.35783 0 3.46976V3.48219V18.4929C0 20.3957 1.61523 21.9503 3.59228 21.9503C5.56933 21.9503 7.18456 20.3957 7.18456 18.4929V4.75071L15.6484 12.8966V13.6303V17.2742L7.92111 9.8372V12.5359L16.708 20.9927C16.7338 21.0175 16.7597 21.03 16.7855 21.0548C16.8372 21.0921 16.876 21.1419 16.9277 21.1792C16.9664 21.2165 17.0052 21.2414 17.0569 21.2787C17.0698 21.2911 17.0956 21.3036 17.1086 21.316C17.1215 21.3284 17.1473 21.3409 17.1602 21.3533C17.2249 21.4031 17.2895 21.4404 17.367 21.4901C17.3928 21.5025 17.4187 21.515 17.4445 21.5274C17.5221 21.5647 17.5867 21.6145 17.6642 21.6393C17.6771 21.6518 17.69 21.6518 17.703 21.6642C17.7417 21.6891 17.7805 21.7015 17.8322 21.714C17.871 21.7264 17.8968 21.7388 17.9356 21.7513C17.9614 21.7637 18.0002 21.7761 18.026 21.7886C18.0648 21.801 18.1035 21.8135 18.1294 21.8259C18.1682 21.8383 18.2069 21.8508 18.2457 21.8632C18.3361 21.8881 18.4266 21.9129 18.517 21.9254C18.5429 21.9254 18.5687 21.9378 18.5817 21.9378L18.6463 21.9503C18.6721 21.9503 18.698 21.9627 18.7109 21.9627C18.7626 21.9751 18.8013 21.9751 18.853 21.9751C18.8789 21.9751 18.8918 21.9751 18.9176 21.9876C18.9435 21.9876 18.9564 21.9876 18.9693 21.9876C19.0468 22 19.1373 22 19.2277 22C19.2407 22 19.2536 22 19.2536 22C19.4087 22 19.5637 21.9876 19.7188 21.9627C19.7446 21.9627 19.7705 21.9627 19.7963 21.9503C19.8222 21.9503 19.8609 21.9378 19.8868 21.9378C19.9255 21.9254 19.9643 21.9254 20.0031 21.9129C20.0547 21.9005 20.1064 21.8881 20.1581 21.8756C20.171 21.8756 20.1969 21.8632 20.2098 21.8632C20.2873 21.8383 20.3649 21.8259 20.4295 21.801C20.4553 21.7886 20.4812 21.7886 20.507 21.7761C20.5975 21.7513 20.675 21.714 20.7654 21.6767C20.7784 21.6767 20.7913 21.6642 20.8042 21.6642C20.8947 21.6269 20.9851 21.5772 21.0756 21.5274C21.3469 21.3782 21.5924 21.2041 21.8121 20.9927C22.2644 20.5574 22.5745 20.0351 22.7296 19.463C22.7296 19.4381 22.7425 19.4257 22.7425 19.4008C22.7683 19.3137 22.7813 19.2267 22.7942 19.1396C22.7942 19.1148 22.8071 19.1023 22.8071 19.0774C22.8071 19.0401 22.82 19.0028 22.82 18.9655C22.82 18.9158 22.8329 18.8785 22.8329 18.8287C22.8329 18.779 22.8459 18.7292 22.8459 18.6795C22.8459 18.6422 22.8459 18.5924 22.8459 18.5551C22.8459 18.5427 22.8459 18.5427 22.8459 18.5302V18.4929C22.8459 18.4805 22.8459 18.4805 22.8459 18.4805V12.9463L20.8688 11.0311V15.2222L17.6513 12.1255V11.2425V6.79028L32.3693 20.9553C32.4597 21.0424 32.5373 21.117 32.6407 21.1916C32.6794 21.2165 32.7182 21.2538 32.7569 21.2787C32.7699 21.2911 32.7828 21.2911 32.7828 21.3036C32.9637 21.4279 33.1446 21.5399 33.3384 21.6269C33.3901 21.6518 33.4418 21.6767 33.4935 21.6891L33.6486 21.7513C33.8165 21.8135 33.9845 21.8632 34.1525 21.8881C34.1913 21.9005 34.23 21.9005 34.2688 21.9129C34.2947 21.9254 34.3205 21.9254 34.3463 21.9254C34.398 21.9378 34.4626 21.9378 34.5143 21.9503C34.5402 21.9503 34.5789 21.9503 34.5919 21.9503C34.6823 21.9627 34.7728 21.9627 34.8761 21.9627C34.9795 21.9627 35.0958 21.9627 35.1992 21.9503C35.2767 21.9503 35.3413 21.9378 35.4189 21.9254C35.5222 21.9129 35.6385 21.8881 35.7677 21.8508C35.7677 21.8508 35.7677 21.8508 35.7807 21.8508C35.9357 21.8135 36.0908 21.7637 36.2459 21.7015C36.4138 21.6393 36.5689 21.5523 36.711 21.4652C36.724 21.4528 36.7369 21.4528 36.7498 21.4404C36.8144 21.4031 36.879 21.3533 36.9436 21.316L36.9566 21.3036C37.0858 21.2041 37.215 21.1046 37.3442 20.9927C37.3571 20.9802 37.383 20.9553 37.3959 20.9429C37.9386 20.4206 38.2875 19.749 38.4038 19.0277C38.4167 18.9531 38.4296 18.8909 38.4296 18.8163C38.4426 18.7168 38.4426 18.6049 38.4426 18.4929V3.50707C38.4426 1.6043 36.8273 0.0497461 34.8503 0.0497461C32.8732 0.0497461 31.258 1.6043 31.258 3.50707V17.2493L22.7942 9.10345L20.843 7.18824ZM5.19459 18.4929C5.19459 19.351 4.47097 20.0351 3.59228 20.0351C2.71359 20.0351 1.98997 19.3386 1.98997 18.4929V6.81515L4.5485 9.27756V6.57886L2.45516 4.5766C2.15795 4.29056 1.98997 3.8926 1.98997 3.48219C1.98997 3.43245 1.98997 3.3827 2.00289 3.33296C2.00289 3.28321 2.01581 3.23347 2.02873 3.18372C2.05458 3.05936 2.10627 2.93499 2.15795 2.81063C2.17087 2.77332 2.19672 2.73601 2.22256 2.6987C2.24841 2.66139 2.27425 2.61165 2.30009 2.57434C2.32594 2.53703 2.35178 2.51215 2.37762 2.48728C2.5973 2.23855 2.90742 2.05201 3.25631 1.97739C3.26923 1.97739 3.26923 1.97739 3.28216 1.97739C3.33384 1.96495 3.38553 1.96495 3.43722 1.95252C3.50183 1.95252 3.55351 1.94008 3.61812 1.94008C3.69566 1.94008 3.77319 1.95252 3.85072 1.96495C3.87656 1.96495 3.90241 1.97739 3.92825 1.97739C4.00578 1.98983 4.08331 2.0147 4.16084 2.03957C4.32883 2.10175 4.48389 2.18881 4.62603 2.30074C4.6648 2.33804 4.70356 2.36292 4.74233 2.40023C5.03953 2.6987 5.20751 3.08423 5.20751 3.49463V18.4929H5.19459ZM19.2407 20.0102C18.362 20.0102 17.6513 19.3262 17.6384 18.4805V15.5331V14.7993L20.3907 17.4483C20.6879 17.7343 20.843 18.1074 20.8559 18.5054C20.8171 19.3386 20.1064 20.0102 19.2407 20.0102Z" fill="#74B700"/>
<path d="M48.0952 9.26512V15.3963H46.325V6.60373H48.4183L52.3982 12.4364V6.60373H54.1814V15.3963H52.2819L48.0952 9.26512Z" fill="white"/>
<path d="M63.356 12.0509C63.356 14.1278 61.9862 15.5828 59.5957 15.5828C57.1793 15.5828 55.8225 14.1402 55.8225 12.0509V6.60373H57.7608V12.0882C57.7608 13.1826 58.3035 13.9163 59.5957 13.9163C60.862 13.9163 61.4177 13.1826 61.4177 12.0882V6.60373H63.356V12.0509Z" fill="white"/>
<path d="M67.0257 15.3963V8.28264H64.1442V6.60373H71.8456V8.28264H68.9511V15.3963H67.0257Z" fill="white"/>
<path d="M72.6597 15.3963V6.60373H76.239C78.5391 6.60373 79.883 7.63595 79.883 9.45167C79.883 10.6456 79.1206 11.5783 77.8155 12.0011L80.1673 15.3963H77.8672L75.7997 12.2872H74.585V15.3963H72.6597ZM74.5979 10.7575H76.1486C77.3245 10.7575 77.9447 10.3222 77.9447 9.4641C77.9447 8.59355 77.3245 8.15828 76.1486 8.15828H74.5979V10.7575Z" fill="white"/>
<path d="M81.1494 15.3963V6.60373H83.0877V15.3963H81.1494Z" fill="white"/>
<path d="M90.8796 15.3963H84.7288V6.60373H90.7891V8.22046H86.667V10.0735H90.4144V11.6778H86.667V13.7795H90.8796V15.3963Z" fill="white"/>
<path d="M93.9809 9.26512V15.3963H92.2106V6.60373H94.3039L98.2839 12.4364V6.60373H100.067V15.3963H98.1676L93.9809 9.26512Z" fill="white"/>
<path d="M103.75 15.3963V8.28264H100.868V6.60373H108.57V8.28264H105.675V15.3963H103.75Z" fill="white"/>
<path d="M111.852 10.9814C111.852 8.40702 113.868 6.41719 116.439 6.41719C118.843 6.41719 120.729 7.9593 121.052 10.2103H118.998C118.778 8.95422 117.757 8.08367 116.465 8.08367C114.901 8.08367 113.842 9.27756 113.842 10.9814C113.842 12.71 114.901 13.9039 116.465 13.9039C117.757 13.9039 118.765 13.0209 118.998 11.7648H121.052C120.729 14.0407 118.855 15.5704 116.439 15.5704C113.868 15.5828 111.852 13.5681 111.852 10.9814Z" fill="white"/>
<path d="M122.189 15.3963V6.60373H124.127V10.0735H128.082V6.60373H130.02V15.3963H128.082V11.6778H124.127V15.3963H122.189Z" fill="white"/>
<path d="M136.998 13.5059H133.444L132.746 15.3963H130.795L134.233 6.60373H136.339L139.75 15.3963H137.67L136.998 13.5059ZM134 12.026H136.468L135.24 8.63086L134 12.026Z" fill="white"/>
<path d="M140.564 15.3963V6.60373H142.503V15.3963H140.564Z" fill="white"/>
<path d="M145.914 9.26512V15.3963H144.144V6.60373H146.237L150.217 12.4364V6.60373H152V15.3963H150.101L145.914 9.26512Z" fill="white"/>
</svg>
